STARTFONT 2.1
COMMENT
COMMENT Converted from OpenType font "BeVietnam-Regular.ttf" by "otf2bdf 3.0".
COMMENT
FONT -FreeType-Be Vietnam-Medium-R-Normal--25-180-100-100-P-119-ISO10646-1
SIZE 18 100 100
FONTBOUNDINGBOX 38 33 -9 -6
STARTPROPERTIES 19
FOUNDRY "FreeType"
FAMILY_NAME "Be Vietnam"
WEIGHT_NAME "Medium"
SLANT "R"
SETWIDTH_NAME "Normal"
ADD_STYLE_NAME ""
PIXEL_SIZE 25
POINT_SIZE 180
RESOLUTION_X 100
RESOLUTION_Y 100
SPACING "P"
AVERAGE_WIDTH 119
CHARSET_REGISTRY "ISO10646"
CHARSET_ENCODING "1"
FONT_ASCENT 29
FONT_DESCENT 6
COPYRIGHT "Copyright 2019 The Bevietnam Project Authors (https://github.com/bettergui/beVietnam)"
_OTF_FONTFILE "BeVietnam-Regular.ttf"
_OTF_PSNAME "BeVietnam-Regular"
ENDPROPERTIES
CHARS 445
STARTCHAR 000D
ENCODING 13
SWIDTH 600 0
DWIDTH 15 0
BBX 0 0 0 0
BITMAP
ENDCHAR
STARTCHAR 0020
ENCODING 32
SWIDTH 200 0
DWIDTH 5 0
BBX 0 0 0 0
BITMAP
ENDCHAR
STARTCHAR 0021
ENCODING 33
SWIDTH 240 0
DWIDTH 6 0
BBX 2 19 2 0
BITMAP
C0
C0
C0
C0
C0
C0
C0
C0
C0
C0
C0
C0
C0
C0
00
00
00
C0
C0
ENDCHAR
STARTCHAR 0022
ENCODING 34
SWIDTH 480 0
DWIDTH 12 0
BBX 9 6 2 13
BITMAP
2100
4200
8200
C200
E380
E380
ENDCHAR
STARTCHAR 0023
ENCODING 35
SWIDTH 840 0
DWIDTH 21 0
BBX 18 18 2 0
BITMAP
018600
010600
030600
030400
030C00
7FFFC0
7FFFC0
060C00
061800
061800
061800
0C1800
FFFF80
0C3000
0C3000
083000
183000
182000
ENDCHAR
STARTCHAR 0024
ENCODING 36
SWIDTH 560 0
DWIDTH 14 0
BBX 12 21 1 -2
BITMAP
0200
0200
1FC0
3FE0
6260
6270
6230
6200
7200
3E00
1FC0
02E0
0270
C230
E230
6230
7270
3FE0
1FC0
0200
0200
ENDCHAR
STARTCHAR 0025
ENCODING 37
SWIDTH 800 0
DWIDTH 20 0
BBX 19 18 1 0
BITMAP
380600
FC0C00
C40C00
841800
C41800
C43000
7C3000
006000
006000
00C000
00C000
018380
0186C0
030C60
030C60
060C60
060440
0C07C0
ENDCHAR
STARTCHAR 0026
ENCODING 38
SWIDTH 600 0
DWIDTH 15 0
BBX 15 18 1 0
BITMAP
0380
0FE0
1C70
1830
1830
1800
1C00
0C00
0600
1F1C
3398
61F0
E0F0
C070
E070
60D8
7F8C
3F06
ENDCHAR
STARTCHAR 0027
ENCODING 39
SWIDTH 280 0
DWIDTH 7 0
BBX 3 6 2 13
BITMAP
E0
E0
60
20
20
40
ENDCHAR
STARTCHAR 0028
ENCODING 40
SWIDTH 440 0
DWIDTH 11 0
BBX 6 25 3 -5
BITMAP
04
0C
18
30
30
60
60
60
C0
C0
C0
C0
C0
C0
C0
C0
C0
E0
60
60
30
30
18
08
04
ENDCHAR
STARTCHAR 0029
ENCODING 41
SWIDTH 480 0
DWIDTH 12 0
BBX 6 25 3 -5
BITMAP
80
C0
60
30
30
18
18
1C
0C
0C
0C
0C
0C
0C
0C
0C
0C
0C
1C
18
18
30
60
60
C0
ENDCHAR
STARTCHAR 002A
ENCODING 42
SWIDTH 480 0
DWIDTH 12 0
BBX 8 9 2 10
BITMAP
08
08
CB
7E
1C
6F
C9
08
08
ENDCHAR
STARTCHAR 002B
ENCODING 43
SWIDTH 560 0
DWIDTH 14 0
BBX 10 10 2 3
BITMAP
0C00
0C00
0C00
0C00
FFC0
FFC0
0C00
0C00
0C00
0C00
ENDCHAR
STARTCHAR 002C
ENCODING 44
SWIDTH 280 0
DWIDTH 7 0
BBX 3 7 2 -4
BITMAP
40
E0
E0
20
20
60
C0
ENDCHAR
STARTCHAR 002D
ENCODING 45
SWIDTH 600 0
DWIDTH 15 0
BBX 9 2 3 7
BITMAP
FF80
FF80
ENDCHAR
STARTCHAR 002E
ENCODING 46
SWIDTH 240 0
DWIDTH 6 0
BBX 3 3 2 0
BITMAP
40
E0
E0
ENDCHAR
STARTCHAR 002F
ENCODING 47
SWIDTH 480 0
DWIDTH 12 0
BBX 11 24 1 -4
BITMAP
0060
00E0
00C0
00C0
0180
0180
0180
0300
0300
0300
0600
0600
0E00
0C00
0C00
1C00
1800
1800
3000
3000
3000
6000
6000
E000
ENDCHAR
STARTCHAR 0030
ENCODING 48
SWIDTH 600 0
DWIDTH 15 0
BBX 13 18 1 0
BITMAP
0F80
1FE0
38E0
7070
6030
E038
E038
E038
E038
E038
E038
E038
E038
6030
6030
7070
3FE0
1FC0
ENDCHAR
STARTCHAR 0031
ENCODING 49
SWIDTH 480 0
DWIDTH 12 0
BBX 9 18 2 0
BITMAP
0C00
1C00
3C00
6C00
CC00
8C00
0C00
0C00
0C00
0C00
0C00
0C00
0C00
0C00
0C00
0C00
FF80
FF80
ENDCHAR
STARTCHAR 0032
ENCODING 50
SWIDTH 560 0
DWIDTH 14 0
BBX 11 18 2 0
BITMAP
1F00
3FC0
70C0
E060
C060
C060
0060
0060
00C0
01C0
0380
0700
0E00
1C00
3000
E000
FFE0
FFE0
ENDCHAR
STARTCHAR 0033
ENCODING 51
SWIDTH 560 0
DWIDTH 14 0
BBX 11 18 2 0
BITMAP
1F00
7FC0
60C0
C060
0060
0060
0060
00C0
0F80
0F80
00E0
0060
0060
0060
C060
E0E0
7FC0
3F80
ENDCHAR
STARTCHAR 0034
ENCODING 52
SWIDTH 600 0
DWIDTH 15 0
BBX 13 18 1 0
BITMAP
00C0
01C0
03C0
03C0
06C0
0EC0
0CC0
18C0
38C0
30C0
60C0
E0C0
FFF8
FFF8
00C0
00C0
00C0
00C0
ENDCHAR
STARTCHAR 0035
ENCODING 53
SWIDTH 600 0
DWIDTH 15 0
BBX 12 18 2 0
BITMAP
7FE0
7FE0
FFE0
C000
C000
C000
C700
DFC0
E0E0
E060
0070
0030
0030
C070
C060
60E0
7FC0
1F80
ENDCHAR
STARTCHAR 0036
ENCODING 54
SWIDTH 560 0
DWIDTH 14 0
BBX 12 18 1 0
BITMAP
0300
0700
0600
0C00
1C00
1800
3000
3FC0
7DE0
7070
6030
E030
E030
6030
6030
7070
3FE0
1F80
ENDCHAR
STARTCHAR 0037
ENCODING 55
SWIDTH 480 0
DWIDTH 12 0
BBX 11 18 1 0
BITMAP
FFE0
FFE0
FFE0
00C0
00C0
01C0
0180
0380
0300
0300
0600
0600
0E00
0C00
1C00
1800
3800
3000
ENDCHAR
STARTCHAR 0038
ENCODING 56
SWIDTH 600 0
DWIDTH 15 0
BBX 13 18 1 0
BITMAP
0F80
1FE0
3870
7030
6030
6030
7030
3060
1FC0
3FE0
7030
6038
E018
E018
6038
7030
3FF0
1FC0
ENDCHAR
STARTCHAR 0039
ENCODING 57
SWIDTH 560 0
DWIDTH 14 0
BBX 12 18 1 0
BITMAP
0F00
3FC0
70E0
6070
6030
C030
C030
6030
6070
78F0
3FE0
0660
00C0
01C0
0180
0300
0700
0600
ENDCHAR
STARTCHAR 003A
ENCODING 58
SWIDTH 280 0
DWIDTH 7 0
BBX 3 13 2 0
BITMAP
C0
E0
C0
00
00
00
00
00
00
00
40
E0
C0
ENDCHAR
STARTCHAR 003B
ENCODING 59
SWIDTH 280 0
DWIDTH 7 0
BBX 4 17 2 -4
BITMAP
60
E0
60
00
00
00
00
00
00
00
00
E0
F0
30
20
20
40
ENDCHAR
STARTCHAR 003C
ENCODING 60
SWIDTH 560 0
DWIDTH 14 0
BBX 9 11 3 3
BITMAP
0080
0380
0F00
3C00
7000
C000
E000
7800
1E00
0780
0180
ENDCHAR
STARTCHAR 003D
ENCODING 61
SWIDTH 680 0
DWIDTH 17 0
BBX 12 8 3 4
BITMAP
FFF0
FFF0
0000
0000
0000
0000
FFF0
FFF0
ENDCHAR
STARTCHAR 003E
ENCODING 62
SWIDTH 560 0
DWIDTH 14 0
BBX 9 10 3 4
BITMAP
C000
F000
3C00
0F00
0380
0780
1E00
7800
E000
8000
ENDCHAR
STARTCHAR 003F
ENCODING 63
SWIDTH 560 0
DWIDTH 14 0
BBX 12 18 1 0
BITMAP
0F80
3FC0
78E0
6070
6030
E030
0030
0060
00E0
01C0
0380
0700
0600
0000
0000
0000
0600
0600
ENDCHAR
STARTCHAR 0040
ENCODING 64
SWIDTH 1000 0
DWIDTH 25 0
BBX 22 22 2 -4
BITMAP
00F800
07FF00
0E03C0
1800E0
300070
600030
61F418
C3F418
C30C08
C60C08
C6040C
C60408
C60C08
C30E18
C39E30
C1F3E0
600000
700000
380000
1C0000
07FFC0
01FFC0
ENDCHAR
STARTCHAR 0041
ENCODING 65
SWIDTH 680 0
DWIDTH 17 0
BBX 15 18 1 0
BITMAP
0380
0380
0380
06C0
06C0
06C0
0C60
0C60
1C70
1830
1830
3FF8
3FF8
3018
600C
600C
E00E
C006
ENDCHAR
STARTCHAR 0042
ENCODING 66
SWIDTH 600 0
DWIDTH 15 0
BBX 13 18 2 0
BITMAP
FE00
FFC0
C0E0
C070
C030
C030
C070
C060
FFC0
FFE0
C070
C030
C038
C038
C030
C070
FFE0
FFC0
ENDCHAR
STARTCHAR 0043
ENCODING 67
SWIDTH 680 0
DWIDTH 17 0
BBX 16 18 1 0
BITMAP
03E0
0FF8
1C3C
380E
7006
6006
6000
E000
E000
E000
E000
6000
6007
7006
300E
381C
1FF8
07E0
ENDCHAR
STARTCHAR 0044
ENCODING 68
SWIDTH 680 0
DWIDTH 17 0
BBX 14 18 2 0
BITMAP
FE00
FFC0
C3F0
C070
C038
C018
C01C
C00C
C00C
C00C
C00C
C00C
C01C
C018
C038
C0F0
FFE0
FF80
ENDCHAR
STARTCHAR 0045
ENCODING 69
SWIDTH 560 0
DWIDTH 14 0
BBX 11 18 2 0
BITMAP
FFE0
FFE0
C000
C000
C000
C000
C000
C000
FFC0
FFC0
C000
C000
C000
C000
C000
C000
FFE0
FFE0
ENDCHAR
STARTCHAR 0046
ENCODING 70
SWIDTH 480 0
DWIDTH 12 0
BBX 10 18 2 0
BITMAP
FFC0
FFC0
C000
C000
C000
C000
C000
C000
FF80
FF80
C000
C000
C000
C000
C000
C000
C000
C000
ENDCHAR
STARTCHAR 0047
ENCODING 71
SWIDTH 680 0
DWIDTH 17 0
BBX 15 18 1 0
BITMAP
03E0
0FF8
1C3C
300C
7006
6006
6000
E000
E000
E0FE
E0FE
6006
6006
6006
300E
381A
1FF2
07E2
ENDCHAR
STARTCHAR 0048
ENCODING 72
SWIDTH 640 0
DWIDTH 16 0
BBX 13 18 2 0
BITMAP
C018
C018
C018
C018
C018
C018
C018
C018
FFF8
FFF8
C018
C018
C018
C018
C018
C018
C018
C018
ENDCHAR
STARTCHAR 0049
ENCODING 73
SWIDTH 240 0
DWIDTH 6 0
BBX 2 18 2 0
BITMAP
C0
C0
C0
C0
C0
C0
C0
C0
C0
C0
C0
C0
C0
C0
C0
C0
C0
C0
ENDCHAR
STARTCHAR 004A
ENCODING 74
SWIDTH 320 0
DWIDTH 8 0
BBX 6 18 1 0
BITMAP
1C
1C
1C
1C
1C
1C
1C
1C
1C
1C
1C
1C
1C
1C
1C
18
F8
F0
ENDCHAR
STARTCHAR 004B
ENCODING 75
SWIDTH 600 0
DWIDTH 15 0
BBX 12 18 2 0
BITMAP
C070
C0E0
C1C0
C380
C700
C600
CC00
D800
F800
FC00
EE00
C600
C300
C380
C1C0
C0C0
C060
C070
ENDCHAR
STARTCHAR 004C
ENCODING 76
SWIDTH 520 0
DWIDTH 13 0
BBX 10 18 2 0
BITMAP
C000
C000
C000
C000
C000
C000
C000
C000
C000
C000
C000
C000
C000
C000
C000
C000
FFC0
FFC0
ENDCHAR
STARTCHAR 004D
ENCODING 77
SWIDTH 800 0
DWIDTH 20 0
BBX 17 18 2 0
BITMAP
E00380
E00780
F00780
F00F80
F80D80
D80D80
D81980
DC1980
CC3980
CE3180
C63180
C67180
C76180
C3E180
C3C180
C1C180
C1C180
C18180
ENDCHAR
STARTCHAR 004E
ENCODING 78
SWIDTH 680 0
DWIDTH 17 0
BBX 14 18 2 0
BITMAP
C00C
E00C
F00C
F00C
F80C
DC0C
CC0C
CE0C
C70C
C30C
C38C
C1CC
C0CC
C0EC
C07C
C03C
C03C
C01C
ENDCHAR
STARTCHAR 004F
ENCODING 79
SWIDTH 720 0
DWIDTH 18 0
BBX 16 18 1 0
BITMAP
03E0
0FF8
1C3C
380E
7006
6007
6007
E003
E003
E003
E003
E003
6007
7006
300E
3C1C
1FF8
07F0
ENDCHAR
STARTCHAR 0050
ENCODING 80
SWIDTH 560 0
DWIDTH 14 0
BBX 12 18 2 0
BITMAP
FC00
FFC0
C3E0
C060
C070
C030
C030
C030
C060
C0E0
FFC0
FF00
C000
C000
C000
C000
C000
C000
ENDCHAR
STARTCHAR 0051
ENCODING 81
SWIDTH 720 0
DWIDTH 18 0
BBX 16 19 1 -1
BITMAP
03E0
0FF8
1C3C
380E
7006
6007
6007
E003
E003
E003
E003
E183
60C7
7066
303E
3C3C
1FF8
07FC
0006
ENDCHAR
STARTCHAR 0052
ENCODING 82
SWIDTH 600 0
DWIDTH 15 0
BBX 12 18 2 0
BITMAP
FC00
FFC0
C3E0
C060
C030
C030
C030
C070
C0E0
FFC0
FF80
C700
C300
C180
C1C0
C0C0
C060
C070
ENDCHAR
STARTCHAR 0053
ENCODING 83
SWIDTH 560 0
DWIDTH 14 0
BBX 13 18 1 0
BITMAP
0F80
3FE0
70F0
6030
6030
6038
6000
7800
3F80
0FE0
0070
0038
E038
E038
6038
7070
3FE0
1FC0
ENDCHAR
STARTCHAR 0054
ENCODING 84
SWIDTH 560 0
DWIDTH 14 0
BBX 13 18 1 0
BITMAP
FFF8
FFF8
0600
0600
0600
0600
0600
0600
0600
0600
0600
0600
0600
0600
0600
0600
0600
0600
ENDCHAR
STARTCHAR 0055
ENCODING 85
SWIDTH 680 0
DWIDTH 17 0
BBX 13 18 2 0
BITMAP
C018
C018
C018
C018
C018
C018
C018
C018
C018
C018
C018
C018
C018
C018
E038
7070
3FE0
1FC0
ENDCHAR
STARTCHAR 0056
ENCODING 86
SWIDTH 600 0
DWIDTH 15 0
BBX 15 18 0 0
BITMAP
E006
6006
6006
700C
300C
300C
3818
1818
1818
1C30
0C30
0C70
0660
0660
06E0
03C0
03C0
03C0
ENDCHAR
STARTCHAR 0057
ENCODING 87
SWIDTH 960 0
DWIDTH 24 0
BBX 24 18 0 0
BITMAP
E01803
601C03
601C03
603C03
703606
303606
307606
30630E
18630C
18E30C
18C38C
18C19C
0CC198
0D81D8
0D80D8
0F80F0
0700F0
070070
ENDCHAR
STARTCHAR 0058
ENCODING 88
SWIDTH 640 0
DWIDTH 16 0
BBX 15 18 1 0
BITMAP
C00E
601C
7018
3038
1870
1C60
0CE0
07C0
0780
0380
07C0
0EC0
0CE0
1870
3830
3038
601C
E00C
ENDCHAR
STARTCHAR 0059
ENCODING 89
SWIDTH 600 0
DWIDTH 15 0
BBX 13 18 1 0
BITMAP
C018
E018
6030
7030
3060
3860
18C0
1CC0
0D80
0F80
0700
0700
0300
0300
0300
0300
0300
0300
ENDCHAR
STARTCHAR 005A
ENCODING 90
SWIDTH 600 0
DWIDTH 15 0
BBX 13 18 1 0
BITMAP
FFF8
FFF8
FFF8
0070
0060
00E0
01C0
0380
0300
0700
0E00
0C00
1800
3800
7000
6000
FFF8
FFF8
ENDCHAR
STARTCHAR 005B
ENCODING 91
SWIDTH 440 0
DWIDTH 11 0
BBX 7 25 2 -5
BITMAP
FE
C0
C0
C0
C0
C0
C0
C0
C0
C0
C0
C0
C0
C0
C0
C0
C0
C0
C0
C0
C0
C0
C0
FE
FE
ENDCHAR
STARTCHAR 005C
ENCODING 92
SWIDTH 480 0
DWIDTH 12 0
BBX 10 24 1 -4
BITMAP
C000
C000
6000
6000
6000
3000
3000
3000
1800
1800
1C00
0C00
0C00
0600
0600
0600
0300
0300
0300
0180
0180
01C0
00C0
00C0
ENDCHAR
STARTCHAR 005D
ENCODING 93
SWIDTH 400 0
DWIDTH 10 0
BBX 7 25 2 -5
BITMAP
FE
06
06
06
06
06
06
06
06
06
06
06
06
06
06
06
06
06
06
06
06
06
06
FE
FE
ENDCHAR
STARTCHAR 005E
ENCODING 94
SWIDTH 400 0
DWIDTH 10 0
BBX 9 5 1 14
BITMAP
1C00
3C00
6600
E300
C380
ENDCHAR
STARTCHAR 005F
ENCODING 95
SWIDTH 680 0
DWIDTH 17 0
BBX 12 2 3 0
BITMAP
FFF0
FFF0
ENDCHAR
STARTCHAR 0060
ENCODING 96
SWIDTH 240 0
DWIDTH 6 0
BBX 4 4 1 16
BITMAP
C0
60
60
30
ENDCHAR
STARTCHAR 0061
ENCODING 97
SWIDTH 600 0
DWIDTH 15 0
BBX 13 13 1 1
BITMAP
1FB8
3DF8
7078
6038
E038
C038
C038
C038
E038
6038
7078
3FB8
1F38
ENDCHAR
STARTCHAR 0062
ENCODING 98
SWIDTH 600 0
DWIDTH 15 0
BBX 12 19 2 0
BITMAP
C000
C000
C000
C000
C000
C200
CFC0
D9E0
E060
E070
C030
C030
C030
C030
C030
E070
F0E0
DFE0
CF80
ENDCHAR
STARTCHAR 0063
ENCODING 99
SWIDTH 560 0
DWIDTH 14 0
BBX 12 14 1 0
BITMAP
0200
1FC0
3CE0
7070
6030
E030
E000
C000
E000
6030
6030
7060
3FE0
1F80
ENDCHAR
STARTCHAR 0064
ENCODING 100
SWIDTH 600 0
DWIDTH 15 0
BBX 13 19 1 0
BITMAP
0038
0038
0038
0038
0038
0038
1FB8
3DF8
7078
6038
E038
C038
C038
E038
E038
6038
7078
3FB8
1F38
ENDCHAR
STARTCHAR 0065
ENCODING 101
SWIDTH 560 0
DWIDTH 14 0
BBX 12 14 1 0
BITMAP
0200
1FC0
38E0
6070
6030
E030
FFF0
FFF0
C000
6000
6030
7060
3FE0
1F80
ENDCHAR
STARTCHAR 0066
ENCODING 102
SWIDTH 360 0
DWIDTH 9 0
BBX 7 18 1 0
BITMAP
1E
38
30
30
30
FE
FE
30
30
30
30
30
30
30
30
30
30
30
ENDCHAR
STARTCHAR 0067
ENCODING 103
SWIDTH 600 0
DWIDTH 15 0
BBX 13 19 1 -5
BITMAP
0400
1FB8
3CF8
7078
6038
E038
E038
E038
E038
6038
7078
78F8
3FB8
0F38
0038
0030
0070
07E0
07C0
ENDCHAR
STARTCHAR 0068
ENCODING 104
SWIDTH 600 0
DWIDTH 15 0
BBX 12 19 2 0
BITMAP
C000
C000
C000
C000
C000
C200
CFC0
DBE0
E0E0
C060
C070
C070
C070
C070
C070
C070
C070
C070
C070
ENDCHAR
STARTCHAR 0069
ENCODING 105
SWIDTH 240 0
DWIDTH 6 0
BBX 2 18 2 0
BITMAP
C0
C0
00
00
00
C0
C0
C0
C0
C0
C0
C0
C0
C0
C0
C0
C0
C0
ENDCHAR
STARTCHAR 006A
ENCODING 106
SWIDTH 240 0
DWIDTH 6 0
BBX 6 23 -1 -5
BITMAP
1C
1C
00
00
00
18
18
18
18
18
18
18
18
18
18
18
18
18
18
18
18
18
F8
ENDCHAR
STARTCHAR 006B
ENCODING 107
SWIDTH 480 0
DWIDTH 12 0
BBX 9 19 2 0
BITMAP
C000
C000
C000
C000
C000
C000
C180
C300
C600
CC00
D800
F000
F000
D800
CC00
C600
C700
C380
C180
ENDCHAR
STARTCHAR 006C
ENCODING 108
SWIDTH 280 0
DWIDTH 7 0
BBX 5 19 2 0
BITMAP
C0
C0
C0
C0
C0
C0
C0
C0
C0
C0
C0
C0
C0
C0
C0
C0
C0
F8
78
ENDCHAR
STARTCHAR 006D
ENCODING 109
SWIDTH 920 0
DWIDTH 23 0
BBX 20 14 2 0
BITMAP
020100
DF8FC0
DBCDE0
E0F070
C06030
C06030
C06030
C06030
C06030
C06030
C06030
C06030
C06030
C06030
ENDCHAR
STARTCHAR 006E
ENCODING 110
SWIDTH 600 0
DWIDTH 15 0
BBX 12 14 2 0
BITMAP
0200
CFC0
DBE0
E0E0
C060
C070
C070
C070
C070
C070
C070
C070
C070
C070
ENDCHAR
STARTCHAR 006F
ENCODING 111
SWIDTH 560 0
DWIDTH 14 0
BBX 13 14 1 0
BITMAP
0200
1FC0
39E0
7070
6030
E030
C038
C038
E038
6030
6030
7060
3FE0
0F80
ENDCHAR
STARTCHAR 0070
ENCODING 112
SWIDTH 600 0
DWIDTH 15 0
BBX 12 19 2 -5
BITMAP
0200
CFC0
D9E0
E060
E070
C030
C030
C030
C030
C030
E070
F0E0
DFE0
CF80
C000
C000
C000
C000
C000
ENDCHAR
STARTCHAR 0071
ENCODING 113
SWIDTH 600 0
DWIDTH 15 0
BBX 13 19 1 -5
BITMAP
0200
1F98
3DD8
7078
6038
E038
E038
E038
E038
6038
6038
7058
3FD8
1F18
0018
0018
0018
0018
0018
ENDCHAR
STARTCHAR 0072
ENCODING 114
SWIDTH 320 0
DWIDTH 8 0
BBX 7 13 2 0
BITMAP
DE
FC
E0
C0
C0
C0
C0
C0
C0
C0
C0
C0
C0
ENDCHAR
STARTCHAR 0073
ENCODING 115
SWIDTH 480 0
DWIDTH 12 0
BBX 10 14 1 0
BITMAP
0400
3F80
7180
60C0
60C0
6000
7C00
1F80
01C0
00C0
C0C0
60C0
7F80
1F00
ENDCHAR
STARTCHAR 0074
ENCODING 116
SWIDTH 360 0
DWIDTH 9 0
BBX 8 18 1 0
BITMAP
30
30
30
30
30
FF
FF
30
30
30
30
30
30
30
30
30
3F
1F
ENDCHAR
STARTCHAR 0075
ENCODING 117
SWIDTH 600 0
DWIDTH 15 0
BBX 11 13 2 0
BITMAP
C060
C060
C060
C060
C060
C060
C060
C060
C060
C060
E0E0
7F60
3E60
ENDCHAR
STARTCHAR 0076
ENCODING 118
SWIDTH 520 0
DWIDTH 13 0
BBX 12 13 1 0
BITMAP
C030
E060
6060
6060
70C0
30C0
31C0
1980
1980
1B80
0F00
0F00
0E00
ENDCHAR
STARTCHAR 0077
ENCODING 119
SWIDTH 800 0
DWIDTH 20 0
BBX 18 13 1 0
BITMAP
C0C0C0
C0E0C0
61E0C0
61E0C0
61B180
63B180
333180
331980
331B00
361B00
1E1F00
1E0E00
1C0E00
ENDCHAR
STARTCHAR 0078
ENCODING 120
SWIDTH 520 0
DWIDTH 13 0
BBX 11 13 1 0
BITMAP
E060
60C0
31C0
3980
1B00
0F00
0E00
1F00
1B80
3980
71C0
60C0
E060
ENDCHAR
STARTCHAR 0079
ENCODING 121
SWIDTH 520 0
DWIDTH 13 0
BBX 12 18 1 -5
BITMAP
C070
E060
6060
60C0
30C0
31C0
3180
1980
1B00
1B00
0F00
0E00
0600
0C00
0C00
1800
F800
F000
ENDCHAR
STARTCHAR 007A
ENCODING 122
SWIDTH 480 0
DWIDTH 12 0
BBX 10 13 1 0
BITMAP
7FC0
7FC0
01C0
0380
0300
0600
0C00
1C00
3800
3000
6000
FFC0
FFC0
ENDCHAR
STARTCHAR 007B
ENCODING 123
SWIDTH 440 0
DWIDTH 11 0
BBX 8 26 2 -5
BITMAP
0F
1F
18
10
10
10
10
10
10
10
10
10
30
E0
30
10
10
10
10
10
10
10
10
10
18
1F
ENDCHAR
STARTCHAR 007C
ENCODING 124
SWIDTH 280 0
DWIDTH 7 0
BBX 2 30 3 -6
BITMAP
C0
C0
C0
C0
C0
C0
C0
C0
C0
C0
C0
C0
C0
C0
C0
C0
C0
C0
C0
C0
C0
C0
C0
C0
C0
C0
C0
C0
C0
C0
ENDCHAR
STARTCHAR 007D
ENCODING 125
SWIDTH 440 0
DWIDTH 11 0
BBX 8 26 3 -5
BITMAP
F0
F8
18
08
08
08
08
08
08
08
08
0C
0C
0F
0C
08
08
08
08
08
08
08
08
08
18
F8
ENDCHAR
STARTCHAR 007E
ENCODING 126
SWIDTH 560 0
DWIDTH 14 0
BBX 10 3 2 8
BITMAP
38C0
7F80
C300
ENDCHAR
STARTCHAR 00A0
ENCODING 160
SWIDTH 200 0
DWIDTH 5 0
BBX 0 0 0 0
BITMAP
ENDCHAR
STARTCHAR 00A1
ENCODING 161
SWIDTH 200 0
DWIDTH 5 0
BBX 2 19 2 -6
BITMAP
C0
C0
C0
00
00
C0
C0
C0
C0
C0
C0
C0
C0
C0
C0
C0
C0
C0
C0
ENDCHAR
STARTCHAR 00A2
ENCODING 162
SWIDTH 600 0
DWIDTH 15 0
BBX 12 17 1 -2
BITMAP
0200
0200
1FC0
3AE0
7270
6230
E230
E200
C200
E200
6230
6230
7260
3FE0
0F80
0200
0200
ENDCHAR
STARTCHAR 00A3
ENCODING 163
SWIDTH 560 0
DWIDTH 14 0
BBX 13 18 1 0
BITMAP
0F80
3FE0
70E0
7070
6030
6030
7000
3000
3800
1800
FFC0
0C00
0C00
0C00
1800
3000
FFF8
FFF8
ENDCHAR
STARTCHAR 00A4
ENCODING 164
SWIDTH 560 0
DWIDTH 14 0
BBX 11 12 2 3
BITMAP
8040
DFE0
7FC0
60C0
C040
C060
C060
C060
60C0
71C0
FFE0
8060
ENDCHAR
STARTCHAR 00A5
ENCODING 165
SWIDTH 600 0
DWIDTH 15 0
BBX 13 18 1 0
BITMAP
C018
E018
6030
7030
3060
3860
18C0
1CC0
0D80
0F80
0700
3FE0
0300
0300
3FE0
0300
0300
0300
ENDCHAR
STARTCHAR 00A6
ENCODING 166
SWIDTH 280 0
DWIDTH 7 0
BBX 2 30 3 -6
BITMAP
C0
C0
C0
C0
C0
C0
C0
C0
C0
C0
C0
C0
C0
00
00
00
00
00
C0
C0
C0
C0
C0
C0
C0
C0
C0
C0
C0
C0
ENDCHAR
STARTCHAR 00A7
ENCODING 167
SWIDTH 520 0
DWIDTH 13 0
BBX 12 18 1 0
BITMAP
0F00
3FC0
70C0
60E0
6000
3C00
3FC0
61E0
C060
E070
7060
3FE0
07C0
00E0
6060
60E0
3FC0
1F80
ENDCHAR
STARTCHAR 00A8
ENCODING 168
SWIDTH 360 0
DWIDTH 9 0
BBX 7 2 1 16
BITMAP
E6
E6
ENDCHAR
STARTCHAR 00A9
ENCODING 169
SWIDTH 800 0
DWIDTH 20 0
BBX 18 18 1 0
BITMAP
03F000
0FFC00
180600
300300
61F180
471880
C60CC0
CC04C0
CC0040
CC0040
CC0040
C40CC0
4618C0
63F180
304180
380300
0E1E00
07F800
ENDCHAR
STARTCHAR 00AA
ENCODING 170
SWIDTH 120 0
DWIDTH 3 0
BBX 4 3 0 10
BITMAP
F0
90
F0
ENDCHAR
STARTCHAR 00AB
ENCODING 171
SWIDTH 600 0
DWIDTH 15 0
BBX 13 10 1 3
BITMAP
0E18
1C30
3860
70E0
61C0
E180
70C0
3860
1C30
0E18
ENDCHAR
STARTCHAR 00AC
ENCODING 172
SWIDTH 640 0
DWIDTH 16 0
BBX 12 6 2 7
BITMAP
FFF0
FFF0
0010
0010
0010
0010
ENDCHAR
STARTCHAR 00AD
ENCODING 173
SWIDTH 600 0
DWIDTH 15 0
BBX 9 2 3 7
BITMAP
FF80
FF80
ENDCHAR
STARTCHAR 00AE
ENCODING 174
SWIDTH 320 0
DWIDTH 8 0
BBX 6 7 1 11
BITMAP
10
6C
B4
B4
B4
44
30
ENDCHAR
STARTCHAR 00AF
ENCODING 175
SWIDTH 360 0
DWIDTH 9 0
BBX 7 1 1 16
BITMAP
FE
ENDCHAR
STARTCHAR 00B0
ENCODING 176
SWIDTH 280 0
DWIDTH 7 0
BBX 5 5 1 17
BITMAP
30
78
88
C8
70
ENDCHAR
STARTCHAR 00B1
ENCODING 177
SWIDTH 600 0
DWIDTH 15 0
BBX 10 14 3 0
BITMAP
0C00
0C00
0C00
0C00
FFC0
FFC0
0C00
0C00
0C00
0C00
0000
0000
FFC0
FFC0
ENDCHAR
STARTCHAR 00B2
ENCODING 178
SWIDTH 280 0
DWIDTH 7 0
BBX 6 10 1 9
BITMAP
78
CC
8C
0C
08
10
60
C0
FC
FC
ENDCHAR
STARTCHAR 00B3
ENCODING 179
SWIDTH 280 0
DWIDTH 7 0
BBX 6 10 1 9
BITMAP
78
CC
04
0C
38
0C
04
8C
FC
30
ENDCHAR
STARTCHAR 00B4
ENCODING 180
SWIDTH 240 0
DWIDTH 6 0
BBX 4 4 1 16
BITMAP
30
70
60
C0
ENDCHAR
STARTCHAR 00B5
ENCODING 181
SWIDTH 640 0
DWIDTH 16 0
BBX 13 18 2 -5
BITMAP
C0C0
C0C0
C0C0
C0C0
C0C0
C0C0
C0C0
C0C0
C0C0
C0C0
E1E0
FF78
FE78
C000
C000
C000
C000
C000
ENDCHAR
STARTCHAR 00B6
ENCODING 182
SWIDTH 520 0
DWIDTH 13 0
BBX 11 18 1 0
BITMAP
0FE0
7FE0
FE60
FE60
FE60
FE60
FE60
FE60
7E60
0E60
0260
0260
0260
0260
0260
0260
0260
0260
ENDCHAR
STARTCHAR 00B7
ENCODING 183
SWIDTH 280 0
DWIDTH 7 0
BBX 3 3 2 8
BITMAP
40
E0
E0
ENDCHAR
STARTCHAR 00B8
ENCODING 184
SWIDTH 240 0
DWIDTH 6 0
BBX 4 6 1 -6
BITMAP
C0
E0
F0
10
10
F0
ENDCHAR
STARTCHAR 00B9
ENCODING 185
SWIDTH 240 0
DWIDTH 6 0
BBX 5 9 1 10
BITMAP
60
E0
A0
20
20
20
20
20
F8
ENDCHAR
STARTCHAR 00BA
ENCODING 186
SWIDTH 160 0
DWIDTH 4 0
BBX 4 3 0 10
BITMAP
60
90
60
ENDCHAR
STARTCHAR 00BB
ENCODING 187
SWIDTH 600 0
DWIDTH 15 0
BBX 14 10 1 3
BITMAP
E1C0
30E0
3870
1C30
0E18
0E1C
0C38
1870
30E0
E1C0
ENDCHAR
STARTCHAR 00BC
ENCODING 188
SWIDTH 800 0
DWIDTH 20 0
BBX 18 18 1 0
BITMAP
200200
600600
E00C00
A00C00
201800
201800
203000
206000
F86000
00C180
00C380
018280
030480
030C80
060880
060FC0
0C0080
180080
ENDCHAR
STARTCHAR 00BD
ENCODING 189
SWIDTH 840 0
DWIDTH 21 0
BBX 19 18 1 0
BITMAP
200300
600700
E00600
A00C00
200C00
201800
203800
203000
F86000
0063C0
00C3E0
01C660
018060
030040
030080
060300
060600
0C07E0
ENDCHAR
STARTCHAR 00BE
ENCODING 190
SWIDTH 840 0
DWIDTH 21 0
BBX 19 18 1 0
BITMAP
300300
7C0300
C40600
040E00
380C00
1C1800
041800
CC3000
7C3000
1060C0
00C1C0
00C1C0
0182C0
0186C0
0304C0
0607E0
0600C0
0C00C0
ENDCHAR
STARTCHAR 00BF
ENCODING 191
SWIDTH 560 0
DWIDTH 14 0
BBX 12 18 1 -6
BITMAP
0600
0700
0200
0000
0000
0700
0600
0E00
1C00
3800
7000
6000
6030
E030
6070
70E0
3FE0
1F80
ENDCHAR
STARTCHAR 00C0
ENCODING 192
SWIDTH 680 0
DWIDTH 17 0
BBX 15 24 1 0
BITMAP
0C00
0E00
0600
0300
0300
0000
0380
0380
0380
06C0
06C0
06C0
0C60
0C60
1C70
1830
1830
3FF8
3FF8
3018
600C
600C
E00E
C006
ENDCHAR
STARTCHAR 00C1
ENCODING 193
SWIDTH 680 0
DWIDTH 17 0
BBX 15 24 1 0
BITMAP
0060
00E0
00C0
0180
0180
0000
0380
0380
0380
06C0
06C0
06C0
0C60
0C60
1C70
1830
1830
3FF8
3FF8
3018
600C
600C
E00E
C006
ENDCHAR
STARTCHAR 00C2
ENCODING 194
SWIDTH 680 0
DWIDTH 17 0
BBX 15 23 1 0
BITMAP
0380
07C0
0EC0
0C60
0000
0380
0380
0380
06C0
06C0
06C0
0C60
0C60
1C70
1830
1830
3FF8
3FF8
3018
600C
600C
E00E
C006
ENDCHAR
STARTCHAR 00C3
ENCODING 195
SWIDTH 680 0
DWIDTH 17 0
BBX 15 23 1 0
BITMAP
0220
0F60
09C0
0000
0000
0380
0380
0380
06C0
06C0
06C0
0C60
0C60
1C70
1830
1830
3FF8
3FF8
3018
600C
600C
E00E
C006
ENDCHAR
STARTCHAR 00C4
ENCODING 196
SWIDTH 680 0
DWIDTH 17 0
BBX 15 23 1 0
BITMAP
0C60
0C60
0C60
0000
0000
0380
0380
0380
06C0
06C0
06C0
0C60
0C60
1C70
1830
1830
3FF8
3FF8
3018
600C
600C
E00E
C006
ENDCHAR
STARTCHAR 00C5
ENCODING 197
SWIDTH 680 0
DWIDTH 17 0
BBX 15 24 1 0
BITMAP
0380
06C0
0440
0380
0000
0000
0380
0380
0380
06C0
06C0
06C0
0C60
0C60
1C70
1830
1830
3FF8
3FF8
3018
600C
600C
E00E
C006
ENDCHAR
STARTCHAR 00C6
ENCODING 198
SWIDTH 920 0
DWIDTH 23 0
BBX 21 18 1 0
BITMAP
007FF8
00FFF8
00D800
01D800
019800
039800
031800
071800
061FF0
0E1FF0
0C1800
1FF800
3FF800
301800
701800
601800
E01FF8
C01FF8
ENDCHAR
STARTCHAR 00C7
ENCODING 199
SWIDTH 680 0
DWIDTH 17 0
BBX 16 24 1 -6
BITMAP
03E0
0FF8
1C3C
380E
7006
6006
6000
E000
E000
E000
E000
6000
6007
7006
300E
381C
1FF8
07F0
0080
01C0
0060
0030
0020
01E0
ENDCHAR
STARTCHAR 00C8
ENCODING 200
SWIDTH 560 0
DWIDTH 14 0
BBX 11 24 2 0
BITMAP
7000
3000
1800
1800
0C00
0000
FFE0
FFE0
C000
C000
C000
C000
C000
C000
FFC0
FFC0
C000
C000
C000
C000
C000
C000
FFE0
FFE0
ENDCHAR
STARTCHAR 00C9
ENCODING 201
SWIDTH 560 0
DWIDTH 14 0
BBX 11 24 2 0
BITMAP
0180
0300
0300
0600
0400
0000
FFE0
FFE0
C000
C000
C000
C000
C000
C000
FFC0
FFC0
C000
C000
C000
C000
C000
C000
FFE0
FFE0
ENDCHAR
STARTCHAR 00CA
ENCODING 202
SWIDTH 560 0
DWIDTH 14 0
BBX 11 23 2 0
BITMAP
0C00
1E00
3300
7180
0000
FFE0
FFE0
C000
C000
C000
C000
C000
C000
FFC0
FFC0
C000
C000
C000
C000
C000
C000
FFE0
FFE0
ENDCHAR
STARTCHAR 00CB
ENCODING 203
SWIDTH 560 0
DWIDTH 14 0
BBX 11 23 2 0
BITMAP
2100
7380
3180
0000
0000
FFE0
FFE0
C000
C000
C000
C000
C000
C000
FFC0
FFC0
C000
C000
C000
C000
C000
C000
FFE0
FFE0
ENDCHAR
STARTCHAR 00CC
ENCODING 204
SWIDTH 240 0
DWIDTH 6 0
BBX 5 24 -1 0
BITMAP
E0
60
30
30
18
00
18
18
18
18
18
18
18
18
18
18
18
18
18
18
18
18
18
18
ENDCHAR
STARTCHAR 00CD
ENCODING 205
SWIDTH 240 0
DWIDTH 6 0
BBX 5 24 2 0
BITMAP
18
30
60
60
C0
00
C0
C0
C0
C0
C0
C0
C0
C0
C0
C0
C0
C0
C0
C0
C0
C0
C0
C0
ENDCHAR
STARTCHAR 00CE
ENCODING 206
SWIDTH 240 0
DWIDTH 6 0
BBX 8 23 -1 0
BITMAP
18
3C
66
C3
00
18
18
18
18
18
18
18
18
18
18
18
18
18
18
18
18
18
18
ENDCHAR
STARTCHAR 00CF
ENCODING 207
SWIDTH 240 0
DWIDTH 6 0
BBX 8 23 -1 0
BITMAP
42
E7
67
00
00
18
18
18
18
18
18
18
18
18
18
18
18
18
18
18
18
18
18
ENDCHAR
STARTCHAR 00D0
ENCODING 208
SWIDTH 680 0
DWIDTH 17 0
BBX 16 18 1 0
BITMAP
3F00
3FF0
31F8
301C
300E
3006
3006
3007
FE07
FE03
3007
3007
3006
3006
300C
303C
3FF8
3FE0
ENDCHAR
STARTCHAR 00D1
ENCODING 209
SWIDTH 680 0
DWIDTH 17 0
BBX 14 23 2 0
BITMAP
0440
0F40
19C0
0000
0000
C00C
E00C
F00C
F00C
F80C
DC0C
CC0C
CE0C
C70C
C30C
C38C
C1CC
C0CC
C0EC
C07C
C03C
C03C
C01C
ENDCHAR
STARTCHAR 00D2
ENCODING 210
SWIDTH 720 0
DWIDTH 18 0
BBX 16 24 1 0
BITMAP
0E00
0600
0300
0300
0180
0000
03E0
0FF8
1C3C
380E
7006
6007
6007
E003
E003
E003
E003
E003
6007
7006
300E
3C1C
1FF8
07F0
ENDCHAR
STARTCHAR 00D3
ENCODING 211
SWIDTH 720 0
DWIDTH 18 0
BBX 16 24 1 0
BITMAP
0030
0060
0060
00C0
0080
0000
03E0
0FF8
1C3C
380E
7006
6007
6007
E003
E003
E003
E003
E003
6007
7006
300E
3C1C
1FF8
07F0
ENDCHAR
STARTCHAR 00D4
ENCODING 212
SWIDTH 720 0
DWIDTH 18 0
BBX 16 23 1 0
BITMAP
0180
03C0
0660
0C30
0000
03E0
0FF8
1C3C
380E
7006
6007
6007
E003
E003
E003
E003
E003
6007
7006
300E
3C1C
1FF8
07F0
ENDCHAR
STARTCHAR 00D5
ENCODING 213
SWIDTH 720 0
DWIDTH 18 0
BBX 16 23 1 0
BITMAP
0230
07B0
04E0
0000
0000
03E0
0FF8
1C3C
380E
7006
6007
6007
E003
E003
E003
E003
E003
6007
7006
300E
3C1C
1FF8
07F0
ENDCHAR
STARTCHAR 00D6
ENCODING 214
SWIDTH 720 0
DWIDTH 18 0
BBX 16 23 1 0
BITMAP
0420
0E70
0630
0000
0000
03E0
0FF8
1C3C
380E
7006
6007
6007
E003
E003
E003
E003
E003
6007
7006
300E
3C1C
1FF8
07F0
ENDCHAR
STARTCHAR 00D7
ENCODING 215
SWIDTH 520 0
DWIDTH 13 0
BBX 8 8 3 4
BITMAP
42
E7
7E
3C
3C
7E
E7
C3
ENDCHAR
STARTCHAR 00D8
ENCODING 216
SWIDTH 720 0
DWIDTH 18 0
BBX 16 20 1 -1
BITMAP
0007
03E6
0FFC
1C3C
381E
7036
6037
6063
E0C3
E0C3
E183
E383
6303
6607
7606
3C0E
3C1C
1FF8
37F0
6000
ENDCHAR
STARTCHAR 00D9
ENCODING 217
SWIDTH 680 0
DWIDTH 17 0
BBX 13 24 2 0
BITMAP
1800
1C00
0C00
0600
0600
0000
C018
C018
C018
C018
C018
C018
C018
C018
C018
C018
C018
C018
C018
C018
E038
7070
3FE0
1FC0
ENDCHAR
STARTCHAR 00DA
ENCODING 218
SWIDTH 680 0
DWIDTH 17 0
BBX 13 24 2 0
BITMAP
00C0
00C0
0180
0300
0300
0000
C018
C018
C018
C018
C018
C018
C018
C018
C018
C018
C018
C018
C018
C018
E038
7070
3FE0
1FC0
ENDCHAR
STARTCHAR 00DB
ENCODING 219
SWIDTH 680 0
DWIDTH 17 0
BBX 13 23 2 0
BITMAP
0700
0F80
0DC0
18E0
0000
C018
C018
C018
C018
C018
C018
C018
C018
C018
C018
C018
C018
C018
C018
E038
7070
3FE0
1FC0
ENDCHAR
STARTCHAR 00DC
ENCODING 220
SWIDTH 680 0
DWIDTH 17 0
BBX 13 23 2 0
BITMAP
08C0
1CC0
18C0
0000
0000
C018
C018
C018
C018
C018
C018
C018
C018
C018
C018
C018
C018
C018
C018
E038
7070
3FE0
1FC0
ENDCHAR
STARTCHAR 00DD
ENCODING 221
SWIDTH 600 0
DWIDTH 15 0
BBX 13 24 1 0
BITMAP
00C0
00C0
0180
0300
0300
0000
C018
E018
6030
7030
3060
3860
18C0
1CC0
0D80
0F80
0700
0700
0300
0300
0300
0300
0300
0300
ENDCHAR
STARTCHAR 00DE
ENCODING 222
SWIDTH 560 0
DWIDTH 14 0
BBX 12 18 2 0
BITMAP
C000
C000
C000
C000
FF80
C3E0
C060
C070
C030
C030
C030
C060
C0E0
FFC0
FF80
C000
C000
C000
ENDCHAR
STARTCHAR 00DF
ENCODING 223
SWIDTH 560 0
DWIDTH 14 0
BBX 11 18 2 0
BITMAP
1F00
7F80
61C0
C0C0
C0C0
C0C0
C0C0
C1C0
DF00
DF80
C0C0
C060
C060
C060
C060
C0C0
CFC0
CF00
ENDCHAR
STARTCHAR 00E0
ENCODING 224
SWIDTH 600 0
DWIDTH 15 0
BBX 13 19 1 0
BITMAP
1C00
0C00
0600
0600
0000
0000
1FB8
3DF8
7078
6038
E038
C038
C038
C038
E038
6038
7078
3FB8
1F38
ENDCHAR
STARTCHAR 00E1
ENCODING 225
SWIDTH 600 0
DWIDTH 15 0
BBX 13 19 1 0
BITMAP
00C0
0180
0180
0300
0000
0000
1FB8
3DF8
7078
6038
E038
C038
C038
C038
E038
6038
7078
3FB8
1F38
ENDCHAR
STARTCHAR 00E2
ENCODING 226
SWIDTH 600 0
DWIDTH 15 0
BBX 13 18 1 0
BITMAP
0700
0D80
18C0
0000
0000
1FB8
3DF8
7078
6038
E038
C038
C038
C038
E038
6038
7078
3FB8
1F38
ENDCHAR
STARTCHAR 00E3
ENCODING 227
SWIDTH 600 0
DWIDTH 15 0
BBX 13 18 1 0
BITMAP
0E40
1BC0
0000
0000
0000
1FB8
3DF8
7078
6038
E038
C038
C038
C038
E038
6038
7078
3FB8
1F38
ENDCHAR
STARTCHAR 00E4
ENCODING 228
SWIDTH 600 0
DWIDTH 15 0
BBX 13 18 1 0
BITMAP
1CC0
1CC0
0000
0000
0000
1FB8
3DF8
7078
6038
E038
C038
C038
C038
E038
6038
7078
3FB8
1F38
ENDCHAR
STARTCHAR 00E5
ENCODING 229
SWIDTH 600 0
DWIDTH 15 0
BBX 13 20 1 0
BITMAP
0200
0580
0880
0580
0300
0000
0000
1FB8
3DF8
7078
6038
E038
C038
C038
C038
E038
6038
7078
3FB8
1F38
ENDCHAR
STARTCHAR 00E6
ENCODING 230
SWIDTH 920 0
DWIDTH 23 0
BBX 21 14 1 0
BITMAP
000100
1F8FE0
39DC70
607030
607018
007018
007FF8
3FFFF8
606000
E07000
C07018
E0F830
7F9FF0
3F07C0
ENDCHAR
STARTCHAR 00E7
ENCODING 231
SWIDTH 560 0
DWIDTH 14 0
BBX 12 20 1 -6
BITMAP
0200
1FC0
3CE0
7070
6030
E030
E000
C000
E000
6030
6030
7060
3FE0
0FC0
0200
0700
07C0
0040
00C0
0780
ENDCHAR
STARTCHAR 00E8
ENCODING 232
SWIDTH 560 0
DWIDTH 14 0
BBX 12 19 1 0
BITMAP
1800
0C00
0C00
0600
0000
0200
1FC0
38E0
6070
6030
E030
FFF0
FFF0
C000
6000
6030
7060
3FE0
1F80
ENDCHAR
STARTCHAR 00E9
ENCODING 233
SWIDTH 560 0
DWIDTH 14 0
BBX 12 19 1 0
BITMAP
00C0
0180
0300
0300
0000
0200
1FC0
38E0
6070
6030
E030
FFF0
FFF0
C000
6000
6030
7060
3FE0
1F80
ENDCHAR
STARTCHAR 00EA
ENCODING 234
SWIDTH 560 0
DWIDTH 14 0
BBX 12 18 1 0
BITMAP
0700
0D80
18C0
0000
0200
1FC0
38E0
6070
6030
E030
FFF0
FFF0
C000
6000
6030
7060
3FE0
1F80
ENDCHAR
STARTCHAR 00EB
ENCODING 235
SWIDTH 560 0
DWIDTH 14 0
BBX 12 18 1 0
BITMAP
18C0
18C0
0000
0000
0200
1FC0
38E0
6070
6030
E030
FFF0
FFF0
C000
6000
6030
7060
3FE0
1F80
ENDCHAR
STARTCHAR 00EC
ENCODING 236
SWIDTH 240 0
DWIDTH 6 0
BBX 4 19 0 0
BITMAP
C0
E0
60
30
00
00
30
30
30
30
30
30
30
30
30
30
30
30
30
ENDCHAR
STARTCHAR 00ED
ENCODING 237
SWIDTH 240 0
DWIDTH 6 0
BBX 5 19 2 0
BITMAP
38
30
60
40
00
00
C0
C0
C0
C0
C0
C0
C0
C0
C0
C0
C0
C0
C0
ENDCHAR
STARTCHAR 00EE
ENCODING 238
SWIDTH 240 0
DWIDTH 6 0
BBX 8 18 -1 0
BITMAP
3C
76
63
80
00
18
18
18
18
18
18
18
18
18
18
18
18
18
ENDCHAR
STARTCHAR 00EF
ENCODING 239
SWIDTH 240 0
DWIDTH 6 0
BBX 8 18 -1 0
BITMAP
E7
E7
00
00
00
18
18
18
18
18
18
18
18
18
18
18
18
18
ENDCHAR
STARTCHAR 00F0
ENCODING 240
SWIDTH 600 0
DWIDTH 15 0
BBX 12 20 1 0
BITMAP
0C10
0FB0
01C0
03E0
0260
0030
0430
3FB0
79F0
6070
E030
C030
C030
C030
C030
E030
6070
7060
3FC0
1F80
ENDCHAR
STARTCHAR 00F1
ENCODING 241
SWIDTH 600 0
DWIDTH 15 0
BBX 12 18 2 0
BITMAP
1C80
3780
0000
0000
0200
CFC0
DBE0
E0E0
C060
C070
C070
C070
C070
C070
C070
C070
C070
C070
ENDCHAR
STARTCHAR 00F2
ENCODING 242
SWIDTH 560 0
DWIDTH 14 0
BBX 13 19 1 0
BITMAP
1800
0C00
0C00
0600
0000
0200
1FC0
39E0
7070
6030
E030
C038
C038
E038
6030
6030
7060
3FE0
0F80
ENDCHAR
STARTCHAR 00F3
ENCODING 243
SWIDTH 560 0
DWIDTH 14 0
BBX 13 19 1 0
BITMAP
00C0
0180
0300
0300
0000
0200
1FC0
39E0
7070
6030
E030
C038
C038
E038
6030
6030
7060
3FE0
0F80
ENDCHAR
STARTCHAR 00F4
ENCODING 244
SWIDTH 560 0
DWIDTH 14 0
BBX 13 18 1 0
BITMAP
0700
0D80
18C0
0000
0200
1FC0
39E0
7070
6030
E030
C038
C038
E038
6030
6030
7060
3FE0
0F80
ENDCHAR
STARTCHAR 00F5
ENCODING 245
SWIDTH 560 0
DWIDTH 14 0
BBX 13 18 1 0
BITMAP
1E40
13C0
0000
0000
0200
1FC0
39E0
7070
6030
E030
C038
C038
E038
6030
6030
7060
3FE0
0F80
ENDCHAR
STARTCHAR 00F6
ENCODING 246
SWIDTH 560 0
DWIDTH 14 0
BBX 13 18 1 0
BITMAP
18C0
18C0
0000
0000
0200
1FC0
39E0
7070
6030
E030
C038
C038
E038
6030
6030
7060
3FE0
0F80
ENDCHAR
STARTCHAR 00F7
ENCODING 247
SWIDTH 600 0
DWIDTH 15 0
BBX 10 12 2 2
BITMAP
0C00
1C00
0C00
0000
0000
FFC0
FFC0
0000
0000
0C00
1C00
0C00
ENDCHAR
STARTCHAR 00F8
ENCODING 248
SWIDTH 560 0
DWIDTH 14 0
BBX 13 16 1 -1
BITMAP
0030
0260
1FC0
3DE0
70F0
61B0
E130
C338
C638
E638
6C30
6830
7860
3FE0
3F80
2000
ENDCHAR
STARTCHAR 00F9
ENCODING 249
SWIDTH 600 0
DWIDTH 15 0
BBX 11 19 2 0
BITMAP
3000
1800
1800
0C00
0000
0000
C060
C060
C060
C060
C060
C060
C060
C060
C060
C060
E0E0
7F60
3E60
ENDCHAR
STARTCHAR 00FA
ENCODING 250
SWIDTH 600 0
DWIDTH 15 0
BBX 11 19 2 0
BITMAP
0380
0300
0600
0600
0000
0000
C060
C060
C060
C060
C060
C060
C060
C060
C060
C060
E0E0
7F60
3E60
ENDCHAR
STARTCHAR 00FB
ENCODING 251
SWIDTH 600 0
DWIDTH 15 0
BBX 11 18 2 0
BITMAP
1E00
1B00
3180
0000
0000
C060
C060
C060
C060
C060
C060
C060
C060
C060
C060
E0E0
7F60
3E60
ENDCHAR
STARTCHAR 00FC
ENCODING 252
SWIDTH 600 0
DWIDTH 15 0
BBX 11 18 2 0
BITMAP
7380
7380
0000
0000
0000
C060
C060
C060
C060
C060
C060
C060
C060
C060
C060
E0E0
7F60
3E60
ENDCHAR
STARTCHAR 00FD
ENCODING 253
SWIDTH 520 0
DWIDTH 13 0
BBX 12 24 1 -5
BITMAP
0180
0300
0300
0600
0000
0000
C070
E060
6060
60C0
30C0
31C0
3180
1980
1B00
1B00
0F00
0E00
0600
0C00
0C00
1800
F800
F000
ENDCHAR
STARTCHAR 00FE
ENCODING 254
SWIDTH 600 0
DWIDTH 15 0
BBX 12 25 2 -6
BITMAP
C000
C000
C000
C000
C000
C200
CFC0
D9E0
E060
E070
C030
C030
C030
C030
C030
E070
F0E0
DFE0
CF80
C000
C000
C000
C000
C000
C000
ENDCHAR
STARTCHAR 00FF
ENCODING 255
SWIDTH 520 0
DWIDTH 13 0
BBX 12 23 1 -5
BITMAP
39C0
39C0
0000
0000
0000
C070
E060
6060
60C0
30C0
31C0
3180
1980
1B00
1B00
0F00
0E00
0600
0C00
0C00
1800
F800
F000
ENDCHAR
STARTCHAR 0100
ENCODING 256
SWIDTH 680 0
DWIDTH 17 0
BBX 15 21 1 0
BITMAP
0FE0
0000
0000
0380
0380
0380
06C0
06C0
06C0
0C60
0C60
1C70
1830
1830
3FF8
3FF8
3018
600C
600C
E00E
C006
ENDCHAR
STARTCHAR 0101
ENCODING 257
SWIDTH 600 0
DWIDTH 15 0
BBX 13 17 1 0
BITMAP
1FC0
0000
0000
0000
1FB8
3DF8
7078
6038
E038
C038
C038
C038
E038
6038
7078
3FB8
1F38
ENDCHAR
STARTCHAR 0102
ENCODING 258
SWIDTH 680 0
DWIDTH 17 0
BBX 15 22 1 0
BITMAP
0C60
07C0
0000
0000
0380
0380
0380
06C0
06C0
06C0
0C60
0C60
1C70
1830
1830
3FF8
3FF8
3018
600C
600C
E00E
C006
ENDCHAR
STARTCHAR 0103
ENCODING 259
SWIDTH 600 0
DWIDTH 15 0
BBX 13 18 1 0
BITMAP
1860
1FC0
0700
0000
0000
1FB8
3DF8
7078
6038
E038
C038
C038
C038
E038
6038
7078
3FB8
1F38
ENDCHAR
STARTCHAR 0104
ENCODING 260
SWIDTH 680 0
DWIDTH 17 0
BBX 16 22 1 -4
BITMAP
0380
0380
0380
06C0
06C0
06C0
0C60
0C60
1C70
1830
1830
3FF8
3FF8
3018
600C
600C
E00E
C006
000C
0008
000C
0007
ENDCHAR
STARTCHAR 0105
ENCODING 261
SWIDTH 600 0
DWIDTH 15 0
BBX 14 17 1 -3
BITMAP
1FB8
3DF8
7078
6038
E038
C038
C038
C038
E038
6038
7078
3FB8
1F38
0030
0020
0030
003C
ENDCHAR
STARTCHAR 0106
ENCODING 262
SWIDTH 680 0
DWIDTH 17 0
BBX 16 24 1 0
BITMAP
0070
0060
00C0
00C0
0180
0000
03E0
0FF8
1C3C
380E
7006
6006
6000
E000
E000
E000
E000
6000
6007
7006
300E
381C
1FF8
07E0
ENDCHAR
STARTCHAR 0107
ENCODING 263
SWIDTH 560 0
DWIDTH 14 0
BBX 12 19 1 0
BITMAP
00C0
0180
0100
0300
0000
0200
1FC0
3CE0
7070
6030
E030
E000
C000
E000
6030
6030
7060
3FE0
1F80
ENDCHAR
STARTCHAR 010A
ENCODING 266
SWIDTH 680 0
DWIDTH 17 0
BBX 16 23 1 0
BITMAP
0180
0180
0180
0000
0000
03E0
0FF8
1C3C
380E
7006
6006
6000
E000
E000
E000
E000
6000
6007
7006
300E
381C
1FF8
07E0
ENDCHAR
STARTCHAR 010B
ENCODING 267
SWIDTH 560 0
DWIDTH 14 0
BBX 12 18 1 0
BITMAP
0700
0700
0000
0000
0200
1FC0
3CE0
7070
6030
E030
E000
C000
E000
6030
6030
7060
3FE0
1F80
ENDCHAR
STARTCHAR 010C
ENCODING 268
SWIDTH 680 0
DWIDTH 17 0
BBX 16 23 1 0
BITMAP
0C30
0660
03C0
0180
0000
03E0
0FF8
1C3C
380E
7006
6006
6000
E000
E000
E000
E000
6000
6007
7006
300E
381C
1FF8
07E0
ENDCHAR
STARTCHAR 010D
ENCODING 269
SWIDTH 560 0
DWIDTH 14 0
BBX 12 18 1 0
BITMAP
18C0
0D80
0700
0000
0200
1FC0
3CE0
7070
6030
E030
E000
C000
E000
6030
6030
7060
3FE0
1F80
ENDCHAR
STARTCHAR 010E
ENCODING 270
SWIDTH 680 0
DWIDTH 17 0
BBX 14 23 2 0
BITMAP
38C0
1980
0F00
0700
0000
FE00
FFC0
C3F0
C070
C038
C018
C01C
C00C
C00C
C00C
C00C
C00C
C01C
C018
C038
C0F0
FFE0
FF80
ENDCHAR
STARTCHAR 010F
ENCODING 271
SWIDTH 720 0
DWIDTH 18 0
BBX 17 20 1 0
BITMAP
000100
003B80
003B80
003880
003880
003900
003A00
1FB800
3DF800
707800
603800
E03800
C03800
C03800
E03800
E03800
603800
707800
3FB800
1F3800
ENDCHAR
STARTCHAR 0110
ENCODING 272
SWIDTH 680 0
DWIDTH 17 0
BBX 16 18 1 0
BITMAP
3F00
3FF0
31F8
301C
300E
3006
3006
3007
FE07
FE03
3007
3007
3006
3006
300C
303C
3FF8
3FE0
ENDCHAR
STARTCHAR 0111
ENCODING 273
SWIDTH 600 0
DWIDTH 15 0
BBX 14 19 1 0
BITMAP
0038
0038
01FC
01FC
0038
0038
1FB8
3DF8
7078
6038
E038
C038
C038
E038
E038
6038
7078
3FB8
1F38
ENDCHAR
STARTCHAR 0112
ENCODING 274
SWIDTH 560 0
DWIDTH 14 0
BBX 11 21 2 0
BITMAP
7F80
0000
0000
FFE0
FFE0
C000
C000
C000
C000
C000
C000
FFC0
FFC0
C000
C000
C000
C000
C000
C000
FFE0
FFE0
ENDCHAR
STARTCHAR 0113
ENCODING 275
SWIDTH 560 0
DWIDTH 14 0
BBX 12 17 1 0
BITMAP
1FC0
0000
0000
0200
1FC0
38E0
6070
6030
E030
FFF0
FFF0
C000
6000
6030
7060
3FE0
1F80
ENDCHAR
STARTCHAR 0116
ENCODING 278
SWIDTH 560 0
DWIDTH 14 0
BBX 11 23 2 0
BITMAP
0400
0E00
0C00
0000
0000
FFE0
FFE0
C000
C000
C000
C000
C000
C000
FFC0
FFC0
C000
C000
C000
C000
C000
C000
FFE0
FFE0
ENDCHAR
STARTCHAR 0117
ENCODING 279
SWIDTH 560 0
DWIDTH 14 0
BBX 12 18 1 0
BITMAP
0700
0700
0000
0000
0200
1FC0
38E0
6070
6030
E030
FFF0
FFF0
C000
6000
6030
7060
3FE0
1F80
ENDCHAR
STARTCHAR 0118
ENCODING 280
SWIDTH 560 0
DWIDTH 14 0
BBX 12 22 2 -4
BITMAP
FFE0
FFE0
C000
C000
C000
C000
C000
C000
FFC0
FFC0
C000
C000
C000
C000
C000
C000
FFE0
FFE0
00C0
0080
00C0
0070
ENDCHAR
STARTCHAR 0119
ENCODING 281
SWIDTH 560 0
DWIDTH 14 0
BBX 12 18 1 -4
BITMAP
0200
1FC0
38E0
6070
6030
E030
FFF0
FFF0
C000
6000
6030
7060
3FE0
1F80
0600
0C00
0400
0700
ENDCHAR
STARTCHAR 011A
ENCODING 282
SWIDTH 560 0
DWIDTH 14 0
BBX 11 23 2 0
BITMAP
6180
3300
1E00
0E00
0000
FFE0
FFE0
C000
C000
C000
C000
C000
C000
FFC0
FFC0
C000
C000
C000
C000
C000
C000
FFE0
FFE0
ENDCHAR
STARTCHAR 011B
ENCODING 283
SWIDTH 560 0
DWIDTH 14 0
BBX 12 18 1 0
BITMAP
18C0
0D80
0700
0000
0200
1FC0
38E0
6070
6030
E030
FFF0
FFF0
C000
6000
6030
7060
3FE0
1F80
ENDCHAR
STARTCHAR 011E
ENCODING 286
SWIDTH 680 0
DWIDTH 17 0
BBX 15 22 1 0
BITMAP
0C30
07E0
0000
0000
03E0
0FF8
1C3C
300C
7006
6006
6000
E000
E000
E0FE
E0FE
6006
6006
6006
300E
381A
1FF2
07E2
ENDCHAR
STARTCHAR 011F
ENCODING 287
SWIDTH 600 0
DWIDTH 15 0
BBX 13 23 1 -5
BITMAP
1060
1FC0
0700
0000
0400
1FB8
3CF8
7078
6038
E038
E038
E038
E038
6038
7078
78F8
3FB8
0F38
0038
0030
0070
07E0
07C0
ENDCHAR
STARTCHAR 0120
ENCODING 288
SWIDTH 680 0
DWIDTH 17 0
BBX 15 23 1 0
BITMAP
0180
0180
0180
0000
0000
03E0
0FF8
1C3C
300C
7006
6006
6000
E000
E000
E0FE
E0FE
6006
6006
6006
300E
381A
1FF2
07E2
ENDCHAR
STARTCHAR 0121
ENCODING 289
SWIDTH 600 0
DWIDTH 15 0
BBX 13 23 1 -5
BITMAP
0700
0700
0000
0000
0400
1FB8
3CF8
7078
6038
E038
E038
E038
E038
6038
7078
78F8
3FB8
0F38
0038
0030
0070
07E0
07C0
ENDCHAR
STARTCHAR 0126
ENCODING 294
SWIDTH 680 0
DWIDTH 17 0
BBX 16 18 1 0
BITMAP
600C
600C
600C
FFFF
FFFF
600C
600C
600C
7FFC
7FFC
600C
600C
600C
600C
600C
600C
600C
600C
ENDCHAR
STARTCHAR 0127
ENCODING 295
SWIDTH 600 0
DWIDTH 15 0
BBX 14 19 0 0
BITMAP
3000
3000
FF00
FF00
3000
3000
33F0
3778
3C18
381C
300C
300C
300C
300C
300C
300C
300C
300C
300C
ENDCHAR
STARTCHAR 0128
ENCODING 296
SWIDTH 240 0
DWIDTH 6 0
BBX 8 23 -1 0
BITMAP
23
7B
CE
00
00
18
18
18
18
18
18
18
18
18
18
18
18
18
18
18
18
18
18
ENDCHAR
STARTCHAR 0129
ENCODING 297
SWIDTH 240 0
DWIDTH 6 0
BBX 7 18 0 0
BITMAP
F6
BC
00
00
00
30
30
30
30
30
30
30
30
30
30
30
30
30
ENDCHAR
STARTCHAR 012A
ENCODING 298
SWIDTH 240 0
DWIDTH 6 0
BBX 8 21 -1 0
BITMAP
FF
00
00
18
18
18
18
18
18
18
18
18
18
18
18
18
18
18
18
18
18
ENDCHAR
STARTCHAR 012B
ENCODING 299
SWIDTH 240 0
DWIDTH 6 0
BBX 8 17 -1 0
BITMAP
FF
00
00
00
18
18
18
18
18
18
18
18
18
18
18
18
18
ENDCHAR
STARTCHAR 012E
ENCODING 302
SWIDTH 240 0
DWIDTH 6 0
BBX 4 22 1 -4
BITMAP
60
60
60
60
60
60
60
60
60
60
60
60
60
60
60
60
60
60
40
C0
C0
70
ENDCHAR
STARTCHAR 012F
ENCODING 303
SWIDTH 240 0
DWIDTH 6 0
BBX 4 22 1 -4
BITMAP
60
60
00
00
00
60
60
60
60
60
60
60
60
60
60
60
60
60
60
C0
C0
70
ENDCHAR
STARTCHAR 0130
ENCODING 304
SWIDTH 240 0
DWIDTH 6 0
BBX 2 23 2 0
BITMAP
C0
C0
C0
00
00
C0
C0
C0
C0
C0
C0
C0
C0
C0
C0
C0
C0
C0
C0
C0
C0
C0
C0
ENDCHAR
STARTCHAR 0131
ENCODING 305
SWIDTH 240 0
DWIDTH 6 0
BBX 2 13 2 0
BITMAP
C0
C0
C0
C0
C0
C0
C0
C0
C0
C0
C0
C0
C0
ENDCHAR
STARTCHAR 0139
ENCODING 313
SWIDTH 520 0
DWIDTH 13 0
BBX 10 24 2 0
BITMAP
3800
3000
6000
6000
C000
0000
C000
C000
C000
C000
C000
C000
C000
C000
C000
C000
C000
C000
C000
C000
C000
C000
FFC0
FFC0
ENDCHAR
STARTCHAR 013A
ENCODING 314
SWIDTH 280 0
DWIDTH 7 0
BBX 5 25 2 0
BITMAP
38
30
60
60
C0
00
C0
C0
C0
C0
C0
C0
C0
C0
C0
C0
C0
C0
C0
C0
C0
C0
C0
F8
78
ENDCHAR
STARTCHAR 013D
ENCODING 317
SWIDTH 520 0
DWIDTH 13 0
BBX 13 23 -1 0
BITMAP
C300
6600
3C00
1800
0000
1800
1800
1800
1800
1800
1800
1800
1800
1800
1800
1800
1800
1800
1800
1800
1800
1FF8
1FF8
ENDCHAR
STARTCHAR 013E
ENCODING 318
SWIDTH 320 0
DWIDTH 8 0
BBX 7 19 2 1
BITMAP
DC
DE
C6
C4
C4
C8
C0
C0
C0
C0
C0
C0
C0
C0
C0
C0
C0
F8
78
ENDCHAR
STARTCHAR 0143
ENCODING 323
SWIDTH 680 0
DWIDTH 17 0
BBX 14 24 2 0
BITMAP
00E0
00C0
0180
0180
0300
0000
C00C
E00C
F00C
F00C
F80C
DC0C
CC0C
CE0C
C70C
C30C
C38C
C1CC
C0CC
C0EC
C07C
C03C
C03C
C01C
ENDCHAR
STARTCHAR 0144
ENCODING 324
SWIDTH 600 0
DWIDTH 15 0
BBX 12 19 2 0
BITMAP
0180
0300
0300
0600
0000
0200
CFC0
DBE0
E0E0
C060
C070
C070
C070
C070
C070
C070
C070
C070
C070
ENDCHAR
STARTCHAR 0147
ENCODING 327
SWIDTH 680 0
DWIDTH 17 0
BBX 14 23 2 0
BITMAP
1860
0CC0
0780
0300
0000
C00C
E00C
F00C
F00C
F80C
DC0C
CC0C
CE0C
C70C
C30C
C38C
C1CC
C0CC
C0EC
C07C
C03C
C03C
C01C
ENDCHAR
STARTCHAR 0148
ENCODING 328
SWIDTH 600 0
DWIDTH 15 0
BBX 12 18 2 0
BITMAP
3180
1B00
0E00
0000
0200
CFC0
DBE0
E0E0
C060
C070
C070
C070
C070
C070
C070
C070
C070
C070
ENDCHAR
STARTCHAR 014C
ENCODING 332
SWIDTH 720 0
DWIDTH 18 0
BBX 16 21 1 0
BITMAP
0FF0
0000
0000
03E0
0FF8
1C3C
380E
7006
6007
6007
E003
E003
E003
E003
E003
6007
7006
300E
3C1C
1FF8
07F0
ENDCHAR
STARTCHAR 014D
ENCODING 333
SWIDTH 560 0
DWIDTH 14 0
BBX 13 17 1 0
BITMAP
1FC0
0000
0000
0200
1FC0
39E0
7070
6030
E030
C038
C038
E038
6030
6030
7060
3FE0
0F80
ENDCHAR
STARTCHAR 0152
ENCODING 338
SWIDTH 960 0
DWIDTH 24 0
BBX 22 18 1 0
BITMAP
00FFFC
0FFFFC
1F1800
381800
701800
601800
E01800
C01800
C01FF0
C01FF0
C01800
E01800
E01800
601800
701800
3C1800
1FFFFC
07FFFC
ENDCHAR
STARTCHAR 0153
ENCODING 339
SWIDTH 960 0
DWIDTH 24 0
BBX 22 14 1 0
BITMAP
020080
1FC7F0
3DEE38
706C0C
60380C
E0380C
C03FFC
C03FFC
C03800
603800
60380C
706C1C
3FC7F8
1F83E0
ENDCHAR
STARTCHAR 0154
ENCODING 340
SWIDTH 600 0
DWIDTH 15 0
BBX 12 24 2 0
BITMAP
0180
0300
0300
0600
0C00
0000
FC00
FFC0
C3E0
C060
C030
C030
C030
C070
C0E0
FFC0
FF80
C700
C300
C180
C1C0
C0C0
C060
C070
ENDCHAR
STARTCHAR 0155
ENCODING 341
SWIDTH 320 0
DWIDTH 8 0
BBX 7 19 2 0
BITMAP
0C
18
10
30
00
00
DE
FC
E0
C0
C0
C0
C0
C0
C0
C0
C0
C0
C0
ENDCHAR
STARTCHAR 0158
ENCODING 344
SWIDTH 600 0
DWIDTH 15 0
BBX 12 23 2 0
BITMAP
6180
3300
1E00
0C00
0000
FC00
FFC0
C3E0
C060
C030
C030
C030
C070
C0E0
FFC0
FF80
C700
C300
C180
C1C0
C0C0
C060
C070
ENDCHAR
STARTCHAR 0159
ENCODING 345
SWIDTH 320 0
DWIDTH 8 0
BBX 8 18 1 0
BITMAP
C6
6C
38
00
00
6F
7E
70
60
60
60
60
60
60
60
60
60
60
ENDCHAR
STARTCHAR 015A
ENCODING 346
SWIDTH 560 0
DWIDTH 14 0
BBX 13 24 1 0
BITMAP
00E0
00C0
0180
0180
0300
0000
0F80
3FE0
70F0
6030
6030
6038
6000
7800
3F80
0FE0
0070
0038
E038
E038
6038
7070
3FE0
1FC0
ENDCHAR
STARTCHAR 015B
ENCODING 347
SWIDTH 480 0
DWIDTH 12 0
BBX 10 20 1 0
BITMAP
0180
0380
0300
0600
0600
0000
0400
3F80
7180
60C0
60C0
6000
7C00
1F80
01C0
00C0
C0C0
60C0
7F80
1F00
ENDCHAR
STARTCHAR 015E
ENCODING 350
SWIDTH 560 0
DWIDTH 14 0
BBX 13 24 1 -6
BITMAP
0F80
3FE0
70F0
6030
6030
6038
6000
7800
3F80
0FE0
0070
0038
E038
E038
6038
7070
3FE0
1FC0
0200
0700
0780
0040
00C0
0780
ENDCHAR
STARTCHAR 015F
ENCODING 351
SWIDTH 480 0
DWIDTH 12 0
BBX 10 20 1 -6
BITMAP
0400
3F80
7180
60C0
60C0
6000
7C00
1F80
01C0
00C0
C0C0
60C0
7F80
3F00
0400
0E00
0F00
0080
0180
0F00
ENDCHAR
STARTCHAR 0160
ENCODING 352
SWIDTH 560 0
DWIDTH 14 0
BBX 13 23 1 0
BITMAP
1860
0CC0
0780
0300
0000
0F80
3FE0
70F0
6030
6030
6038
6000
7800
3F80
0FE0
0070
0038
E038
E038
6038
7070
3FE0
1FC0
ENDCHAR
STARTCHAR 0161
ENCODING 353
SWIDTH 480 0
DWIDTH 12 0
BBX 10 19 1 0
BITMAP
6180
3380
1F00
0E00
0000
0400
3F80
7180
60C0
60C0
6000
7C00
1F80
01C0
00C0
C0C0
60C0
7F80
1F00
ENDCHAR
STARTCHAR 0162
ENCODING 354
SWIDTH 560 0
DWIDTH 14 0
BBX 13 24 1 -6
BITMAP
FFF8
FFF8
0600
0600
0600
0600
0600
0600
0600
0600
0600
0600
0600
0600
0600
0600
0600
0600
0600
0600
0780
0080
0080
0780
ENDCHAR
STARTCHAR 0163
ENCODING 355
SWIDTH 360 0
DWIDTH 9 0
BBX 8 24 1 -6
BITMAP
30
30
30
30
30
FF
FF
30
30
30
30
30
30
30
30
30
3F
1F
08
0C
1F
01
03
0E
ENDCHAR
STARTCHAR 0164
ENCODING 356
SWIDTH 560 0
DWIDTH 14 0
BBX 13 23 1 0
BITMAP
38C0
1980
0F80
0700
0000
FFF8
FFF8
0600
0600
0600
0600
0600
0600
0600
0600
0600
0600
0600
0600
0600
0600
0600
0600
ENDCHAR
STARTCHAR 0165
ENCODING 357
SWIDTH 480 0
DWIDTH 12 0
BBX 11 20 1 0
BITMAP
0040
00E0
30E0
3020
3020
3040
3080
FF00
FF00
3000
3000
3000
3000
3000
3000
3000
3000
3000
3F00
1F00
ENDCHAR
STARTCHAR 0166
ENCODING 358
SWIDTH 560 0
DWIDTH 14 0
BBX 13 18 1 0
BITMAP
FFF8
FFF8
0600
0600
0600
0600
0600
0600
7FF0
0600
0600
0600
0600
0600
0600
0600
0600
0600
ENDCHAR
STARTCHAR 0167
ENCODING 359
SWIDTH 360 0
DWIDTH 9 0
BBX 8 18 1 0
BITMAP
30
30
30
30
30
FF
FF
30
30
30
FF
30
30
30
30
38
3F
1F
ENDCHAR
STARTCHAR 0168
ENCODING 360
SWIDTH 680 0
DWIDTH 17 0
BBX 13 23 2 0
BITMAP
0440
1EC0
13C0
0000
0000
C018
C018
C018
C018
C018
C018
C018
C018
C018
C018
C018
C018
C018
C018
E038
7070
3FE0
1FC0
ENDCHAR
STARTCHAR 0169
ENCODING 361
SWIDTH 600 0
DWIDTH 15 0
BBX 11 18 2 0
BITMAP
3D80
2700
0000
0000
0000
C060
C060
C060
C060
C060
C060
C060
C060
C060
C060
E0E0
7F60
3E60
ENDCHAR
STARTCHAR 016A
ENCODING 362
SWIDTH 680 0
DWIDTH 17 0
BBX 13 21 2 0
BITMAP
1FC0
0000
0000
C018
C018
C018
C018
C018
C018
C018
C018
C018
C018
C018
C018
C018
C018
E038
7070
3FE0
1FC0
ENDCHAR
STARTCHAR 016B
ENCODING 363
SWIDTH 600 0
DWIDTH 15 0
BBX 11 17 2 0
BITMAP
7F80
0000
0000
0000
C060
C060
C060
C060
C060
C060
C060
C060
C060
C060
E0E0
7F60
3E60
ENDCHAR
STARTCHAR 016E
ENCODING 366
SWIDTH 680 0
DWIDTH 17 0
BBX 13 24 2 0
BITMAP
0700
0D80
0880
0700
0000
0000
C018
C018
C018
C018
C018
C018
C018
C018
C018
C018
C018
C018
C018
C018
E038
7070
3FE0
1FC0
ENDCHAR
STARTCHAR 016F
ENCODING 367
SWIDTH 600 0
DWIDTH 15 0
BBX 11 20 2 0
BITMAP
0C00
1A00
1200
1A00
0C00
0000
0000
C060
C060
C060
C060
C060
C060
C060
C060
C060
C060
E0E0
7F60
3E60
ENDCHAR
STARTCHAR 0172
ENCODING 370
SWIDTH 680 0
DWIDTH 17 0
BBX 13 22 2 -4
BITMAP
C018
C018
C018
C018
C018
C018
C018
C018
C018
C018
C018
C018
C018
C018
E038
7070
3FE0
1FC0
0600
0400
0400
0780
ENDCHAR
STARTCHAR 0173
ENCODING 371
SWIDTH 600 0
DWIDTH 15 0
BBX 12 17 2 -4
BITMAP
C060
C060
C060
C060
C060
C060
C060
C060
C060
C060
E0E0
7F60
3E60
00C0
00C0
00C0
0070
ENDCHAR
STARTCHAR 0174
ENCODING 372
SWIDTH 960 0
DWIDTH 24 0
BBX 24 23 0 0
BITMAP
001C00
003E00
007600
006300
000000
E01803
601C03
601C03
603C03
703606
303606
307606
30630E
18630C
18E30C
18C38C
18C19C
0CC198
0D81D8
0D80D8
0F80F0
0700F0
070070
ENDCHAR
STARTCHAR 0175
ENCODING 373
SWIDTH 800 0
DWIDTH 20 0
BBX 18 18 1 0
BITMAP
01E000
01B000
031800
000000
000000
C0C0C0
C0E0C0
61E0C0
61E0C0
61B180
63B180
333180
331980
331B00
361B00
1E1F00
1E0E00
1C0E00
ENDCHAR
STARTCHAR 0176
ENCODING 374
SWIDTH 600 0
DWIDTH 15 0
BBX 13 23 1 0
BITMAP
0700
0780
0DC0
18E0
0000
C018
E018
6030
7030
3060
3860
18C0
1CC0
0D80
0F80
0700
0700
0300
0300
0300
0300
0300
0300
ENDCHAR
STARTCHAR 0177
ENCODING 375
SWIDTH 520 0
DWIDTH 13 0
BBX 12 23 1 -5
BITMAP
0F00
1B00
3180
0000
0000
C070
E060
6060
60C0
30C0
31C0
3180
1980
1B00
1B00
0F00
0E00
0600
0C00
0C00
1800
F800
F000
ENDCHAR
STARTCHAR 0178
ENCODING 376
SWIDTH 600 0
DWIDTH 15 0
BBX 13 23 1 0
BITMAP
08C0
1CE0
18C0
0000
0000
C018
E018
6030
7030
3060
3860
18C0
1CC0
0D80
0F80
0700
0700
0300
0300
0300
0300
0300
0300
ENDCHAR
STARTCHAR 0179
ENCODING 377
SWIDTH 600 0
DWIDTH 15 0
BBX 13 24 1 0
BITMAP
00C0
00C0
0180
0100
0300
0000
FFF8
FFF8
FFF8
0070
0060
00E0
01C0
0380
0300
0700
0E00
0C00
1800
3800
7000
6000
FFF8
FFF8
ENDCHAR
STARTCHAR 017A
ENCODING 378
SWIDTH 480 0
DWIDTH 12 0
BBX 10 19 1 0
BITMAP
0180
0300
0600
0600
0000
0000
7FC0
7FC0
01C0
0380
0300
0600
0C00
1C00
3800
3000
6000
FFC0
FFC0
ENDCHAR
STARTCHAR 017B
ENCODING 379
SWIDTH 600 0
DWIDTH 15 0
BBX 13 23 1 0
BITMAP
0200
0700
0300
0000
0000
FFF8
FFF8
FFF8
0070
0060
00E0
01C0
0380
0300
0700
0E00
0C00
1800
3800
7000
6000
FFF8
FFF8
ENDCHAR
STARTCHAR 017C
ENCODING 380
SWIDTH 480 0
DWIDTH 12 0
BBX 10 18 1 0
BITMAP
0E00
0E00
0000
0000
0000
7FC0
7FC0
01C0
0380
0300
0600
0C00
1C00
3800
3000
6000
FFC0
FFC0
ENDCHAR
STARTCHAR 017D
ENCODING 381
SWIDTH 600 0
DWIDTH 15 0
BBX 13 23 1 0
BITMAP
18E0
0CC0
0780
0700
0000
FFF8
FFF8
FFF8
0070
0060
00E0
01C0
0380
0300
0700
0E00
0C00
1800
3800
7000
6000
FFF8
FFF8
ENDCHAR
STARTCHAR 017E
ENCODING 382
SWIDTH 480 0
DWIDTH 12 0
BBX 10 18 1 0
BITMAP
3180
1B00
0E00
0000
0000
7FC0
7FC0
01C0
0380
0300
0600
0C00
1C00
3800
3000
6000
FFC0
FFC0
ENDCHAR
STARTCHAR 01A0
ENCODING 416
SWIDTH 720 0
DWIDTH 18 0
BBX 16 20 1 0
BITMAP
0006
0006
03FC
0FF8
1C3C
380E
7006
6006
6007
E003
E003
E003
E003
E003
6007
7006
300E
3C1C
1FF8
07F0
ENDCHAR
STARTCHAR 01A1
ENCODING 417
SWIDTH 600 0
DWIDTH 15 0
BBX 13 15 1 0
BITMAP
0018
0218
1FF0
39E0
7070
6030
E030
C038
C038
E038
6030
6030
7060
3FE0
0F80
ENDCHAR
STARTCHAR 01AF
ENCODING 431
SWIDTH 680 0
DWIDTH 17 0
BBX 16 20 2 0
BITMAP
0003
0003
C01F
C01E
C018
C018
C018
C018
C018
C018
C018
C018
C018
C018
C018
C018
E038
7070
3FE0
1FC0
ENDCHAR
STARTCHAR 01B0
ENCODING 432
SWIDTH 600 0
DWIDTH 15 0
BBX 14 15 2 0
BITMAP
000C
000C
C078
C060
C060
C060
C060
C060
C060
C060
C060
C060
E0E0
7F60
3E60
ENDCHAR
STARTCHAR 02C6
ENCODING 710
SWIDTH 400 0
DWIDTH 10 0
BBX 8 3 1 15
BITMAP
3C
76
E3
ENDCHAR
STARTCHAR 02C7
ENCODING 711
SWIDTH 360 0
DWIDTH 9 0
BBX 8 3 1 15
BITMAP
E7
3C
3C
ENDCHAR
STARTCHAR 02D8
ENCODING 728
SWIDTH 360 0
DWIDTH 9 0
BBX 8 3 1 15
BITMAP
C3
7E
3C
ENDCHAR
STARTCHAR 02D9
ENCODING 729
SWIDTH 160 0
DWIDTH 4 0
BBX 3 2 1 16
BITMAP
E0
C0
ENDCHAR
STARTCHAR 02DA
ENCODING 730
SWIDTH 200 0
DWIDTH 5 0
BBX 4 5 1 15
BITMAP
60
F0
90
F0
60
ENDCHAR
STARTCHAR 02DB
ENCODING 731
SWIDTH 200 0
DWIDTH 5 0
BBX 4 5 1 -5
BITMAP
40
C0
80
F0
70
ENDCHAR
STARTCHAR 02DC
ENCODING 732
SWIDTH 360 0
DWIDTH 9 0
BBX 7 2 1 16
BITMAP
72
DE
ENDCHAR
STARTCHAR 0300
ENCODING 768
SWIDTH 0 0
DWIDTH 0 0
BBX 4 4 -5 16
BITMAP
C0
C0
60
30
ENDCHAR
STARTCHAR 0301
ENCODING 769
SWIDTH 0 0
DWIDTH 0 0
BBX 4 4 -4 16
BITMAP
70
60
C0
C0
ENDCHAR
STARTCHAR 0302
ENCODING 770
SWIDTH 0 0
DWIDTH 0 0
BBX 7 3 -8 15
BITMAP
38
6C
C6
ENDCHAR
STARTCHAR 0303
ENCODING 771
SWIDTH 0 0
DWIDTH 0 0
BBX 7 2 -8 16
BITMAP
72
DE
ENDCHAR
STARTCHAR 0304
ENCODING 772
SWIDTH 0 0
DWIDTH 0 0
BBX 8 1 -9 16
BITMAP
FF
ENDCHAR
STARTCHAR 0306
ENCODING 774
SWIDTH 0 0
DWIDTH 0 0
BBX 8 3 -9 15
BITMAP
C3
7E
3C
ENDCHAR
STARTCHAR 0307
ENCODING 775
SWIDTH 0 0
DWIDTH 0 0
BBX 2 2 -4 16
BITMAP
C0
C0
ENDCHAR
STARTCHAR 0308
ENCODING 776
SWIDTH 0 0
DWIDTH 0 0
BBX 7 2 -9 16
BITMAP
C6
C6
ENDCHAR
STARTCHAR 0309
ENCODING 777
SWIDTH 0 0
DWIDTH 0 0
BBX 5 4 -6 16
BITMAP
78
D8
08
30
ENDCHAR
STARTCHAR 030A
ENCODING 778
SWIDTH 0 0
DWIDTH 0 0
BBX 5 5 -6 15
BITMAP
20
50
88
58
20
ENDCHAR
STARTCHAR 030C
ENCODING 780
SWIDTH 0 0
DWIDTH 0 0
BBX 8 3 -9 15
BITMAP
E7
7C
38
ENDCHAR
STARTCHAR 031B
ENCODING 795
SWIDTH 0 0
DWIDTH 0 0
BBX 4 3 -5 14
BITMAP
10
30
F0
ENDCHAR
STARTCHAR 0323
ENCODING 803
SWIDTH 0 0
DWIDTH 0 0
BBX 3 2 -3 -6
BITMAP
C0
E0
ENDCHAR
STARTCHAR 0327
ENCODING 807
SWIDTH 0 0
DWIDTH 0 0
BBX 4 6 -5 -6
BITMAP
C0
C0
F0
10
10
E0
ENDCHAR
STARTCHAR 0328
ENCODING 808
SWIDTH 0 0
DWIDTH 0 0
BBX 4 5 -5 -5
BITMAP
60
C0
C0
70
30
ENDCHAR
STARTCHAR 1E80
ENCODING 7808
SWIDTH 960 0
DWIDTH 24 0
BBX 24 24 0 0
BITMAP
006000
006000
003000
001800
001800
000000
E01803
601C03
601C03
603C03
703606
303606
307606
30630E
18630C
18E30C
18C38C
18C19C
0CC198
0D81D8
0D80D8
0F80F0
0700F0
070070
ENDCHAR
STARTCHAR 1E81
ENCODING 7809
SWIDTH 800 0
DWIDTH 20 0
BBX 18 19 1 0
BITMAP
030000
018000
018000
00C000
000000
000000
C0C0C0
C0E0C0
61E0C0
61E0C0
61B180
63B180
333180
331980
331B00
361B00
1E1F00
1E0E00
1C0E00
ENDCHAR
STARTCHAR 1E82
ENCODING 7810
SWIDTH 960 0
DWIDTH 24 0
BBX 24 24 0 0
BITMAP
000300
000700
000600
000C00
000C00
000000
E01803
601C03
601C03
603C03
703606
303606
307606
30630E
18630C
18E30C
18C38C
18C19C
0CC198
0D81D8
0D80D8
0F80F0
0700F0
070070
ENDCHAR
STARTCHAR 1E83
ENCODING 7811
SWIDTH 800 0
DWIDTH 20 0
BBX 18 19 1 0
BITMAP
003800
003000
006000
006000
000000
000000
C0C0C0
C0E0C0
61E0C0
61E0C0
61B180
63B180
333180
331980
331B00
361B00
1E1F00
1E0E00
1C0E00
ENDCHAR
STARTCHAR 1E84
ENCODING 7812
SWIDTH 960 0
DWIDTH 24 0
BBX 24 23 0 0
BITMAP
006200
006700
006300
000000
000000
E01803
601C03
601C03
603C03
703606
303606
307606
30630E
18630C
18E30C
18C38C
18C19C
0CC198
0D81D8
0D80D8
0F80F0
0700F0
070070
ENDCHAR
STARTCHAR 1E85
ENCODING 7813
SWIDTH 800 0
DWIDTH 20 0
BBX 18 18 1 0
BITMAP
073800
033800
000000
000000
000000
C0C0C0
C0E0C0
61E0C0
61E0C0
61B180
63B180
333180
331980
331B00
361B00
1E1F00
1E0E00
1C0E00
ENDCHAR
STARTCHAR 1EA0
ENCODING 7840
SWIDTH 680 0
DWIDTH 17 0
BBX 15 24 1 -6
BITMAP
0380
0380
0380
06C0
06C0
06C0
0C60
0C60
1C70
1830
1830
3FF8
3FF8
3018
600C
600C
E00E
C006
0000
0000
0000
0380
0380
0100
ENDCHAR
STARTCHAR 1EA1
ENCODING 7841
SWIDTH 600 0
DWIDTH 15 0
BBX 13 18 1 -5
BITMAP
1FB8
3DF8
7078
6038
E038
C038
C038
C038
E038
6038
7078
3FB8
1F38
0000
0000
0000
0700
0700
ENDCHAR
STARTCHAR 1EA2
ENCODING 7842
SWIDTH 680 0
DWIDTH 17 0
BBX 15 24 1 0
BITMAP
0380
06C0
0040
00C0
0180
0000
0380
0380
0380
06C0
06C0
06C0
0C60
0C60
1C70
1830
1830
3FF8
3FF8
3018
600C
600C
E00E
C006
ENDCHAR
STARTCHAR 1EA3
ENCODING 7843
SWIDTH 600 0
DWIDTH 15 0
BBX 13 20 1 0
BITMAP
0300
0F80
0C80
0180
0300
0000
0000
1FB8
3DF8
7078
6038
E038
C038
C038
C038
E038
6038
7078
3FB8
1F38
ENDCHAR
STARTCHAR 1EA4
ENCODING 7844
SWIDTH 680 0
DWIDTH 17 0
BBX 15 27 1 0
BITMAP
0006
000C
000C
0018
0390
07C0
0EC0
0C60
0000
0380
0380
0380
06C0
06C0
06C0
0C60
0C60
1C70
1830
1830
3FF8
3FF8
3018
600C
600C
E00E
C006
ENDCHAR
STARTCHAR 1EA5
ENCODING 7845
SWIDTH 600 0
DWIDTH 15 0
BBX 14 22 1 0
BITMAP
000C
0018
0010
0030
0700
0D80
18C0
0000
0000
1FB8
3DF8
7078
6038
E038
C038
C038
C038
E038
6038
7078
3FB8
1F38
ENDCHAR
STARTCHAR 1EA6
ENCODING 7846
SWIDTH 680 0
DWIDTH 17 0
BBX 15 27 1 0
BITMAP
00C0
00E0
0060
0030
03B0
07C0
0EC0
0C60
0000
0380
0380
0380
06C0
06C0
06C0
0C60
0C60
1C70
1830
1830
3FF8
3FF8
3018
600C
600C
E00E
C006
ENDCHAR
STARTCHAR 1EA7
ENCODING 7847
SWIDTH 600 0
DWIDTH 15 0
BBX 13 22 1 0
BITMAP
01C0
00C0
0060
0060
0700
0D80
18C0
0000
0000
1FB8
3DF8
7078
6038
E038
C038
C038
C038
E038
6038
7078
3FB8
1F38
ENDCHAR
STARTCHAR 1EA8
ENCODING 7848
SWIDTH 680 0
DWIDTH 17 0
BBX 15 27 1 0
BITMAP
0038
006C
000C
0008
03B0
07C0
0EC0
0C60
0000
0380
0380
0380
06C0
06C0
06C0
0C60
0C60
1C70
1830
1830
3FF8
3FF8
3018
600C
600C
E00E
C006
ENDCHAR
STARTCHAR 1EA9
ENCODING 7849
SWIDTH 600 0
DWIDTH 15 0
BBX 13 23 1 0
BITMAP
0070
00F8
0008
0018
0030
0700
0D80
18C0
0000
0000
1FB8
3DF8
7078
6038
E038
C038
C038
C038
E038
6038
7078
3FB8
1F38
ENDCHAR
STARTCHAR 1EAA
ENCODING 7850
SWIDTH 680 0
DWIDTH 17 0
BBX 15 27 1 0
BITMAP
0020
0F60
09E0
0000
0380
07C0
0EC0
0C60
0000
0380
0380
0380
06C0
06C0
06C0
0C60
0C60
1C70
1830
1830
3FF8
3FF8
3018
600C
600C
E00E
C006
ENDCHAR
STARTCHAR 1EAB
ENCODING 7851
SWIDTH 600 0
DWIDTH 15 0
BBX 13 22 1 0
BITMAP
0E40
1BC0
1000
0000
0700
0D80
18C0
0000
0000
1FB8
3DF8
7078
6038
E038
C038
C038
C038
E038
6038
7078
3FB8
1F38
ENDCHAR
STARTCHAR 1EAC
ENCODING 7852
SWIDTH 680 0
DWIDTH 17 0
BBX 15 29 1 -6
BITMAP
0380
07C0
0EC0
0C60
0000
0380
0380
0380
06C0
06C0
06C0
0C60
0C60
1C70
1830
1830
3FF8
3FF8
3018
600C
600C
E00E
C006
0000
0000
0000
0380
0380
0100
ENDCHAR
STARTCHAR 1EAD
ENCODING 7853
SWIDTH 600 0
DWIDTH 15 0
BBX 13 23 1 -6
BITMAP
0700
0D80
18C0
0000
0000
1FB8
3DF8
7078
6038
E038
C038
C038
C038
E038
6038
7078
3FB8
1F38
0000
0000
0000
0700
0700
ENDCHAR
STARTCHAR 1EAE
ENCODING 7854
SWIDTH 680 0
DWIDTH 17 0
BBX 15 27 1 0
BITMAP
0060
00C0
00C0
0180
0000
0C60
07C0
0000
0000
0380
0380
0380
06C0
06C0
06C0
0C60
0C60
1C70
1830
1830
3FF8
3FF8
3018
600C
600C
E00E
C006
ENDCHAR
STARTCHAR 1EAF
ENCODING 7855
SWIDTH 600 0
DWIDTH 15 0
BBX 13 23 1 0
BITMAP
00C0
00C0
0180
0300
0300
1860
1FC0
0700
0000
0000
1FB8
3DF8
7078
6038
E038
C038
C038
C038
E038
6038
7078
3FB8
1F38
ENDCHAR
STARTCHAR 1EB0
ENCODING 7856
SWIDTH 680 0
DWIDTH 17 0
BBX 15 27 1 0
BITMAP
0C00
0600
0600
0300
0000
0C60
07C0
0000
0000
0380
0380
0380
06C0
06C0
06C0
0C60
0C60
1C70
1830
1830
3FF8
3FF8
3018
600C
600C
E00E
C006
ENDCHAR
STARTCHAR 1EB1
ENCODING 7857
SWIDTH 600 0
DWIDTH 15 0
BBX 13 23 1 0
BITMAP
1800
0C00
0C00
0600
0300
1860
1FC0
0700
0000
0000
1FB8
3DF8
7078
6038
E038
C038
C038
C038
E038
6038
7078
3FB8
1F38
ENDCHAR
STARTCHAR 1EB2
ENCODING 7858
SWIDTH 680 0
DWIDTH 17 0
BBX 15 27 1 0
BITMAP
07C0
0440
00C0
0180
0000
0C60
07C0
0000
0000
0380
0380
0380
06C0
06C0
06C0
0C60
0C60
1C70
1830
1830
3FF8
3FF8
3018
600C
600C
E00E
C006
ENDCHAR
STARTCHAR 1EB3
ENCODING 7859
SWIDTH 600 0
DWIDTH 15 0
BBX 13 23 1 0
BITMAP
0780
0C80
0080
0180
0300
1860
1FC0
0700
0000
0000
1FB8
3DF8
7078
6038
E038
C038
C038
C038
E038
6038
7078
3FB8
1F38
ENDCHAR
STARTCHAR 1EB4
ENCODING 7860
SWIDTH 680 0
DWIDTH 17 0
BBX 15 26 1 0
BITMAP
0F20
0DE0
0880
0000
0C60
07C0
0000
0000
0380
0380
0380
06C0
06C0
06C0
0C60
0C60
1C70
1830
1830
3FF8
3FF8
3018
600C
600C
E00E
C006
ENDCHAR
STARTCHAR 1EB5
ENCODING 7861
SWIDTH 600 0
DWIDTH 15 0
BBX 13 22 1 0
BITMAP
0C40
1FC0
1180
0000
1860
1FC0
0700
0000
0000
1FB8
3DF8
7078
6038
E038
C038
C038
C038
E038
6038
7078
3FB8
1F38
ENDCHAR
STARTCHAR 1EB6
ENCODING 7862
SWIDTH 680 0
DWIDTH 17 0
BBX 15 28 1 -6
BITMAP
0C60
07C0
0000
0000
0380
0380
0380
06C0
06C0
06C0
0C60
0C60
1C70
1830
1830
3FF8
3FF8
3018
600C
600C
E00E
C006
0000
0000
0000
0380
0380
0100
ENDCHAR
STARTCHAR 1EB7
ENCODING 7863
SWIDTH 600 0
DWIDTH 15 0
BBX 13 23 1 -6
BITMAP
1860
1FC0
0700
0000
0000
1FB8
3DF8
7078
6038
E038
C038
C038
C038
E038
6038
7078
3FB8
1F38
0000
0000
0000
0700
0700
ENDCHAR
STARTCHAR 1EB8
ENCODING 7864
SWIDTH 560 0
DWIDTH 14 0
BBX 11 23 2 -6
BITMAP
FFE0
FFE0
C000
C000
C000
C000
C000
C000
FFC0
FFC0
C000
C000
C000
C000
C000
C000
FFE0
FFE0
0000
0000
0000
0C00
0E00
ENDCHAR
STARTCHAR 1EB9
ENCODING 7865
SWIDTH 560 0
DWIDTH 14 0
BBX 12 20 1 -6
BITMAP
0200
1FC0
38E0
6070
6030
E030
FFF0
FFF0
C000
6000
6030
7060
3FE0
1F80
0000
0000
0000
0700
0700
0200
ENDCHAR
STARTCHAR 1EBA
ENCODING 7866
SWIDTH 560 0
DWIDTH 14 0
BBX 11 24 2 0
BITMAP
0E00
1B00
0300
0200
0400
0000
FFE0
FFE0
C000
C000
C000
C000
C000
C000
FFC0
FFC0
C000
C000
C000
C000
C000
C000
FFE0
FFE0
ENDCHAR
STARTCHAR 1EBB
ENCODING 7867
SWIDTH 560 0
DWIDTH 14 0
BBX 12 20 1 0
BITMAP
0200
0F80
0880
0180
0300
0000
0200
1FC0
38E0
6070
6030
E030
FFF0
FFF0
C000
6000
6030
7060
3FE0
1F80
ENDCHAR
STARTCHAR 1EBC
ENCODING 7868
SWIDTH 560 0
DWIDTH 14 0
BBX 11 23 2 0
BITMAP
1180
3D80
2700
0000
0000
FFE0
FFE0
C000
C000
C000
C000
C000
C000
FFC0
FFC0
C000
C000
C000
C000
C000
C000
FFE0
FFE0
ENDCHAR
STARTCHAR 1EBD
ENCODING 7869
SWIDTH 560 0
DWIDTH 14 0
BBX 12 18 1 0
BITMAP
1E40
13C0
0000
0000
0200
1FC0
38E0
6070
6030
E030
FFF0
FFF0
C000
6000
6030
7060
3FE0
1F80
ENDCHAR
STARTCHAR 1EBE
ENCODING 7870
SWIDTH 560 0
DWIDTH 14 0
BBX 13 27 2 0
BITMAP
0018
0030
0070
0060
0CC0
1E00
3300
7180
0000
FFE0
FFE0
C000
C000
C000
C000
C000
C000
FFC0
FFC0
C000
C000
C000
C000
C000
C000
FFE0
FFE0
ENDCHAR
STARTCHAR 1EBF
ENCODING 7871
SWIDTH 560 0
DWIDTH 14 0
BBX 14 22 1 0
BITMAP
001C
0018
0030
0030
0700
0D80
18C0
0000
0200
1FC0
38E0
6070
6030
E030
FFF0
FFF0
C000
6000
6030
7060
3FE0
1F80
ENDCHAR
STARTCHAR 1EC0
ENCODING 7872
SWIDTH 560 0
DWIDTH 14 0
BBX 11 27 2 0
BITMAP
0700
0300
0180
0180
0CC0
1E00
3300
6180
0000
FFE0
FFE0
C000
C000
C000
C000
C000
C000
FFC0
FFC0
C000
C000
C000
C000
C000
C000
FFE0
FFE0
ENDCHAR
STARTCHAR 1EC1
ENCODING 7873
SWIDTH 560 0
DWIDTH 14 0
BBX 12 22 1 0
BITMAP
0180
00C0
0040
0060
0700
0D80
18C0
0000
0200
1FC0
38E0
6070
6030
E030
FFF0
FFF0
C000
6000
6030
7060
3FE0
1F80
ENDCHAR
STARTCHAR 1EC2
ENCODING 7874
SWIDTH 560 0
DWIDTH 14 0
BBX 12 27 2 0
BITMAP
01E0
0130
0030
0060
0CC0
1E00
3300
7180
0000
FFE0
FFE0
C000
C000
C000
C000
C000
C000
FFC0
FFC0
C000
C000
C000
C000
C000
C000
FFE0
FFE0
ENDCHAR
STARTCHAR 1EC3
ENCODING 7875
SWIDTH 560 0
DWIDTH 14 0
BBX 13 23 1 0
BITMAP
0070
00F8
0018
0018
0030
0700
0D80
18C0
0000
0200
1FC0
38E0
6070
6030
E030
FFF0
FFF0
C000
6000
6030
7060
3FE0
1F80
ENDCHAR
STARTCHAR 1EC4
ENCODING 7876
SWIDTH 560 0
DWIDTH 14 0
BBX 11 27 2 0
BITMAP
0080
3D80
2700
0000
0C00
1E00
3300
7180
0000
FFE0
FFE0
C000
C000
C000
C000
C000
C000
FFC0
FFC0
C000
C000
C000
C000
C000
C000
FFE0
FFE0
ENDCHAR
STARTCHAR 1EC5
ENCODING 7877
SWIDTH 560 0
DWIDTH 14 0
BBX 12 22 1 0
BITMAP
1E40
1BC0
1000
0000
0700
0D80
18C0
0000
0200
1FC0
38E0
6070
6030
E030
FFF0
FFF0
C000
6000
6030
7060
3FE0
1F80
ENDCHAR
STARTCHAR 1EC6
ENCODING 7878
SWIDTH 560 0
DWIDTH 14 0
BBX 11 28 2 -6
BITMAP
0C00
1E00
3300
7180
0000
FFE0
FFE0
C000
C000
C000
C000
C000
C000
FFC0
FFC0
C000
C000
C000
C000
C000
C000
FFE0
FFE0
0000
0000
0000
0C00
0E00
ENDCHAR
STARTCHAR 1EC7
ENCODING 7879
SWIDTH 560 0
DWIDTH 14 0
BBX 12 24 1 -6
BITMAP
0700
0D80
18C0
0000
0200
1FC0
38E0
6070
6030
E030
FFF0
FFF0
C000
6000
6030
7060
3FE0
1F80
0000
0000
0000
0700
0700
0200
ENDCHAR
STARTCHAR 1EC8
ENCODING 7880
SWIDTH 240 0
DWIDTH 6 0
BBX 5 24 1 0
BITMAP
70
F8
18
30
60
00
60
60
60
60
60
60
60
60
60
60
60
60
60
60
60
60
60
60
ENDCHAR
STARTCHAR 1EC9
ENCODING 7881
SWIDTH 240 0
DWIDTH 6 0
BBX 6 20 0 0
BITMAP
10
78
CC
0C
18
00
00
30
30
30
30
30
30
30
30
30
30
30
30
30
ENDCHAR
STARTCHAR 1ECA
ENCODING 7882
SWIDTH 240 0
DWIDTH 6 0
BBX 2 23 2 -6
BITMAP
C0
C0
C0
C0
C0
C0
C0
C0
C0
C0
C0
C0
C0
C0
C0
C0
C0
C0
00
00
00
C0
C0
ENDCHAR
STARTCHAR 1ECB
ENCODING 7883
SWIDTH 240 0
DWIDTH 6 0
BBX 3 23 2 -6
BITMAP
C0
C0
00
00
00
C0
C0
C0
C0
C0
C0
C0
C0
C0
C0
C0
C0
C0
00
00
00
C0
E0
ENDCHAR
STARTCHAR 1ECC
ENCODING 7884
SWIDTH 720 0
DWIDTH 18 0
BBX 16 23 1 -6
BITMAP
03E0
0FF8
1C3C
380E
7006
6007
6007
E003
E003
E003
E003
E003
6007
7006
300E
3C1C
1FF8
07F0
0000
0000
0000
0180
01C0
ENDCHAR
STARTCHAR 1ECD
ENCODING 7885
SWIDTH 560 0
DWIDTH 14 0
BBX 13 20 1 -6
BITMAP
0200
1FC0
39E0
7070
6030
E030
C038
C038
E038
6030
6030
7060
3FE0
0F80
0000
0000
0000
0700
0700
0200
ENDCHAR
STARTCHAR 1ECE
ENCODING 7886
SWIDTH 720 0
DWIDTH 18 0
BBX 16 24 1 0
BITMAP
01C0
0360
0060
0040
0180
0000
03E0
0FF8
1C3C
380E
7006
6007
6007
E003
E003
E003
E003
E003
6007
7006
300E
3C1C
1FF8
07F0
ENDCHAR
STARTCHAR 1ECF
ENCODING 7887
SWIDTH 560 0
DWIDTH 14 0
BBX 13 20 1 0
BITMAP
0200
0F80
0880
0180
0300
0000
0200
1FC0
39E0
7070
6030
E030
C038
C038
E038
6030
6030
7060
3FE0
0F80
ENDCHAR
STARTCHAR 1ED0
ENCODING 7888
SWIDTH 720 0
DWIDTH 18 0
BBX 16 27 1 0
BITMAP
0003
0006
000C
000C
0198
03C0
0660
0C30
0000
03E0
0FF8
1C3C
380E
7006
6007
6007
E003
E003
E003
E003
E003
6007
7006
300E
3C1C
1FF8
07F0
ENDCHAR
STARTCHAR 1ED1
ENCODING 7889
SWIDTH 560 0
DWIDTH 14 0
BBX 14 22 1 0
BITMAP
001C
0018
0030
0030
0700
0D80
18C0
0000
0200
1FC0
39E0
7070
6030
E030
C038
C038
E038
6030
6030
7060
3FE0
0F80
ENDCHAR
STARTCHAR 1ED2
ENCODING 7890
SWIDTH 720 0
DWIDTH 18 0
BBX 16 27 1 0
BITMAP
00E0
0060
0030
0030
0198
03C0
0660
0C30
0000
03E0
0FF8
1C3C
380E
7006
6007
6007
E003
E003
E003
E003
E003
6007
7006
300E
3C1C
1FF8
07F0
ENDCHAR
STARTCHAR 1ED3
ENCODING 7891
SWIDTH 560 0
DWIDTH 14 0
BBX 13 22 1 0
BITMAP
0180
00C0
00C0
0060
0700
0D80
18C0
0000
0200
1FC0
39E0
7070
6030
E030
C038
C038
E038
6030
6030
7060
3FE0
0F80
ENDCHAR
STARTCHAR 1ED4
ENCODING 7892
SWIDTH 720 0
DWIDTH 18 0
BBX 16 27 1 0
BITMAP
003C
0026
0006
000C
0198
03C0
0660
0C30
0000
03E0
0FF8
1C3C
380E
7006
6007
6007
E003
E003
E003
E003
E003
6007
7006
300E
3C1C
1FF8
07F0
ENDCHAR
STARTCHAR 1ED5
ENCODING 7893
SWIDTH 560 0
DWIDTH 14 0
BBX 13 23 1 0
BITMAP
0070
00F8
0018
0018
0030
0700
0D80
18C0
0000
0200
1FC0
39E0
7070
6030
E030
C038
C038
E038
6030
6030
7060
3FE0
0F80
ENDCHAR
STARTCHAR 1ED6
ENCODING 7894
SWIDTH 720 0
DWIDTH 18 0
BBX 16 27 1 0
BITMAP
0230
07B0
04E0
0000
0180
03C0
0660
0C30
0000
03E0
0FF8
1C3C
380E
7006
6007
6007
E003
E003
E003
E003
E003
6007
7006
300E
3C1C
1FF8
07F0
ENDCHAR
STARTCHAR 1ED7
ENCODING 7895
SWIDTH 560 0
DWIDTH 14 0
BBX 13 22 1 0
BITMAP
1E40
1BC0
1000
0000
0700
0D80
18C0
0000
0200
1FC0
39E0
7070
6030
E030
C038
C038
E038
6030
6030
7060
3FE0
0F80
ENDCHAR
STARTCHAR 1ED8
ENCODING 7896
SWIDTH 720 0
DWIDTH 18 0
BBX 16 28 1 -6
BITMAP
0180
03C0
0660
0C30
0000
03E0
0FF8
1C3C
380E
7006
6007
6007
E003
E003
E003
E003
E003
6007
7006
300E
3C1C
1FF8
07F0
0000
0000
0000
0180
01C0
ENDCHAR
STARTCHAR 1ED9
ENCODING 7897
SWIDTH 560 0
DWIDTH 14 0
BBX 13 24 1 -6
BITMAP
0700
0D80
18C0
0000
0200
1FC0
39E0
7070
6030
E030
C038
C038
E038
6030
6030
7060
3FE0
0F80
0000
0000
0000
0700
0700
0200
ENDCHAR
STARTCHAR 1EDA
ENCODING 7898
SWIDTH 720 0
DWIDTH 18 0
BBX 16 24 1 0
BITMAP
0030
0060
0060
00C0
0086
0006
03FC
0FF8
1C3C
380E
7006
6006
6007
E003
E003
E003
E003
E003
6007
7006
300E
3C1C
1FF8
07F0
ENDCHAR
STARTCHAR 1EDB
ENCODING 7899
SWIDTH 600 0
DWIDTH 15 0
BBX 13 19 1 0
BITMAP
00C0
0180
0300
0300
0018
0218
1FF0
39E0
7070
6030
E030
C038
C038
E038
6030
6030
7060
3FE0
0F80
ENDCHAR
STARTCHAR 1EDC
ENCODING 7900
SWIDTH 720 0
DWIDTH 18 0
BBX 16 24 1 0
BITMAP
0E00
0600
0300
0300
0186
0006
03FC
0FF8
1C3C
380E
7006
6006
6007
E003
E003
E003
E003
E003
6007
7006
300E
3C1C
1FF8
07F0
ENDCHAR
STARTCHAR 1EDD
ENCODING 7901
SWIDTH 600 0
DWIDTH 15 0
BBX 13 19 1 0
BITMAP
1800
0C00
0C00
0600
0018
0218
1FF0
39E0
7070
6030
E030
C038
C038
E038
6030
6030
7060
3FE0
0F80
ENDCHAR
STARTCHAR 1EDE
ENCODING 7902
SWIDTH 720 0
DWIDTH 18 0
BBX 16 24 1 0
BITMAP
01C0
0360
0060
0040
0186
0006
03FC
0FF8
1C3C
380E
7006
6006
6007
E003
E003
E003
E003
E003
6007
7006
300E
3C1C
1FF8
07F0
ENDCHAR
STARTCHAR 1EDF
ENCODING 7903
SWIDTH 600 0
DWIDTH 15 0
BBX 13 20 1 0
BITMAP
0200
0F80
0880
0180
0300
0018
0218
1FF0
39E0
7070
6030
E030
C038
C038
E038
6030
6030
7060
3FE0
0F80
ENDCHAR
STARTCHAR 1EE0
ENCODING 7904
SWIDTH 720 0
DWIDTH 18 0
BBX 16 23 1 0
BITMAP
0230
07B0
04E0
0006
0006
03FC
0FF8
1C3C
380E
7006
6006
6007
E003
E003
E003
E003
E003
6007
7006
300E
3C1C
1FF8
07F0
ENDCHAR
STARTCHAR 1EE1
ENCODING 7905
SWIDTH 600 0
DWIDTH 15 0
BBX 13 18 1 0
BITMAP
1E40
13C0
0000
0018
0218
1FF0
39E0
7070
6030
E030
C038
C038
E038
6030
6030
7060
3FE0
0F80
ENDCHAR
STARTCHAR 1EE2
ENCODING 7906
SWIDTH 720 0
DWIDTH 18 0
BBX 16 25 1 -6
BITMAP
0006
0006
03FC
0FF8
1C3C
380E
7006
6006
6007
E003
E003
E003
E003
E003
6007
7006
300E
3C1C
1FF8
07F0
0000
0000
0000
0180
01C0
ENDCHAR
STARTCHAR 1EE3
ENCODING 7907
SWIDTH 600 0
DWIDTH 15 0
BBX 13 21 1 -6
BITMAP
0018
0218
1FF0
39E0
7070
6030
E030
C038
C038
E038
6030
6030
7060
3FE0
0F80
0000
0000
0000
0700
0700
0200
ENDCHAR
STARTCHAR 1EE4
ENCODING 7908
SWIDTH 680 0
DWIDTH 17 0
BBX 13 24 2 -6
BITMAP
C018
C018
C018
C018
C018
C018
C018
C018
C018
C018
C018
C018
C018
C018
E038
7070
3FE0
1FC0
0000
0000
0000
0700
0700
0200
ENDCHAR
STARTCHAR 1EE5
ENCODING 7909
SWIDTH 600 0
DWIDTH 15 0
BBX 11 18 2 -6
BITMAP
C060
C060
C060
C060
C060
C060
C060
C060
C060
C060
E0E0
7F60
3E60
0000
0000
0000
0C00
0E00
ENDCHAR
STARTCHAR 1EE6
ENCODING 7910
SWIDTH 680 0
DWIDTH 17 0
BBX 13 24 2 0
BITMAP
0700
0D80
0080
0180
0300
0000
C018
C018
C018
C018
C018
C018
C018
C018
C018
C018
C018
C018
C018
C018
E038
7070
3FE0
1FC0
ENDCHAR
STARTCHAR 1EE7
ENCODING 7911
SWIDTH 600 0
DWIDTH 15 0
BBX 11 20 2 0
BITMAP
0C00
1F00
1300
0300
0600
0000
0000
C060
C060
C060
C060
C060
C060
C060
C060
C060
C060
E0E0
7F60
3E60
ENDCHAR
STARTCHAR 1EE8
ENCODING 7912
SWIDTH 680 0
DWIDTH 17 0
BBX 16 24 2 0
BITMAP
00C0
00C0
0180
0300
0303
0003
C01F
C01E
C018
C018
C018
C018
C018
C018
C018
C018
C018
C018
C018
C018
E038
7070
3FE0
1FC0
ENDCHAR
STARTCHAR 1EE9
ENCODING 7913
SWIDTH 600 0
DWIDTH 15 0
BBX 14 19 2 0
BITMAP
0380
0300
0600
0600
000C
000C
C078
C060
C060
C060
C060
C060
C060
C060
C060
C060
E0E0
7F60
3E60
ENDCHAR
STARTCHAR 1EEA
ENCODING 7914
SWIDTH 680 0
DWIDTH 17 0
BBX 16 24 2 0
BITMAP
1800
1C00
0C00
0600
0603
0003
C01F
C01E
C018
C018
C018
C018
C018
C018
C018
C018
C018
C018
C018
C018
E038
7070
3FE0
1FC0
ENDCHAR
STARTCHAR 1EEB
ENCODING 7915
SWIDTH 600 0
DWIDTH 15 0
BBX 14 19 2 0
BITMAP
3000
1800
1800
0C00
000C
000C
C078
C060
C060
C060
C060
C060
C060
C060
C060
C060
E0E0
7F60
3E60
ENDCHAR
STARTCHAR 1EEC
ENCODING 7916
SWIDTH 680 0
DWIDTH 17 0
BBX 16 24 2 0
BITMAP
0700
0D80
0080
0180
0303
0003
C01F
C01E
C018
C018
C018
C018
C018
C018
C018
C018
C018
C018
C018
C018
E038
7070
3FE0
1FC0
ENDCHAR
STARTCHAR 1EED
ENCODING 7917
SWIDTH 600 0
DWIDTH 15 0
BBX 14 20 2 0
BITMAP
0C00
1F00
1300
0300
0600
000C
000C
C078
C060
C060
C060
C060
C060
C060
C060
C060
C060
E0E0
7F60
3E60
ENDCHAR
STARTCHAR 1EEE
ENCODING 7918
SWIDTH 680 0
DWIDTH 17 0
BBX 16 23 2 0
BITMAP
0440
1EC0
13C0
0003
0003
C01F
C01E
C018
C018
C018
C018
C018
C018
C018
C018
C018
C018
C018
C018
E038
7070
3FE0
1FC0
ENDCHAR
STARTCHAR 1EEF
ENCODING 7919
SWIDTH 600 0
DWIDTH 15 0
BBX 14 18 2 0
BITMAP
1C80
3780
0000
000C
000C
C078
C060
C060
C060
C060
C060
C060
C060
C060
C060
E0E0
7F60
3E60
ENDCHAR
STARTCHAR 1EF0
ENCODING 7920
SWIDTH 680 0
DWIDTH 17 0
BBX 16 26 2 -6
BITMAP
0003
0003
C01F
C01E
C018
C018
C018
C018
C018
C018
C018
C018
C018
C018
C018
C018
E038
7070
3FE0
1FC0
0000
0000
0000
0700
0700
0200
ENDCHAR
STARTCHAR 1EF1
ENCODING 7921
SWIDTH 600 0
DWIDTH 15 0
BBX 14 20 2 -6
BITMAP
000C
000C
C078
C060
C060
C060
C060
C060
C060
C060
C060
C060
E0E0
7F60
3E60
0000
0000
0000
0C00
0E00
ENDCHAR
STARTCHAR 1EF2
ENCODING 7922
SWIDTH 600 0
DWIDTH 15 0
BBX 13 24 1 0
BITMAP
1800
1C00
0C00
0600
0200
0000
C018
E018
6030
7030
3060
3860
18C0
1CC0
0D80
0F80
0700
0700
0300
0300
0300
0300
0300
0300
ENDCHAR
STARTCHAR 1EF3
ENCODING 7923
SWIDTH 520 0
DWIDTH 13 0
BBX 12 24 1 -5
BITMAP
3800
1800
0C00
0C00
0000
0000
C070
E060
6060
60C0
30C0
31C0
3180
1980
1B00
1B00
0F00
0E00
0600
0C00
0C00
1800
F800
F000
ENDCHAR
STARTCHAR 1EF4
ENCODING 7924
SWIDTH 600 0
DWIDTH 15 0
BBX 13 24 1 -6
BITMAP
C018
E018
6030
7030
3060
3860
18C0
1CC0
0D80
0F80
0700
0700
0300
0300
0300
0300
0300
0300
0000
0000
0000
0700
0700
0200
ENDCHAR
STARTCHAR 1EF5
ENCODING 7925
SWIDTH 520 0
DWIDTH 13 0
BBX 12 19 1 -6
BITMAP
C070
E060
6060
60C0
30C0
31C0
3180
1980
1B00
1B00
0F00
0E00
0600
0C00
0C00
1800
F8E0
F0E0
0040
ENDCHAR
STARTCHAR 1EF6
ENCODING 7926
SWIDTH 600 0
DWIDTH 15 0
BBX 13 24 1 0
BITMAP
0700
0D80
0080
0180
0300
0000
C018
E018
6030
7030
3060
3860
18C0
1CC0
0D80
0F80
0700
0700
0300
0300
0300
0300
0300
0300
ENDCHAR
STARTCHAR 1EF7
ENCODING 7927
SWIDTH 520 0
DWIDTH 13 0
BBX 12 25 1 -5
BITMAP
0400
1F00
1900
0300
0600
0000
0000
C070
E060
6060
60C0
30C0
31C0
3180
1980
1B00
1B00
0F00
0E00
0600
0C00
0C00
1800
F800
F000
ENDCHAR
STARTCHAR 1EF8
ENCODING 7928
SWIDTH 600 0
DWIDTH 15 0
BBX 13 23 1 0
BITMAP
0440
1FC0
13C0
0000
0000
C018
E018
6030
7030
3060
3860
18C0
1CC0
0D80
0F80
0700
0700
0300
0300
0300
0300
0300
0300
ENDCHAR
STARTCHAR 1EF9
ENCODING 7929
SWIDTH 520 0
DWIDTH 13 0
BBX 12 23 1 -5
BITMAP
1C80
3780
0000
0000
0000
C070
E060
6060
60C0
30C0
31C0
3180
1980
1B00
1B00
0F00
0E00
0600
0C00
0C00
1800
F800
F000
ENDCHAR
STARTCHAR 2013
ENCODING 8211
SWIDTH 640 0
DWIDTH 16 0
BBX 10 2 3 7
BITMAP
FFC0
FFC0
ENDCHAR
STARTCHAR 2014
ENCODING 8212
SWIDTH 760 0
DWIDTH 19 0
BBX 13 2 3 7
BITMAP
FFF8
FFF8
ENDCHAR
STARTCHAR 2018
ENCODING 8216
SWIDTH 280 0
DWIDTH 7 0
BBX 3 6 2 13
BITMAP
20
40
80
80
E0
E0
ENDCHAR
STARTCHAR 2019
ENCODING 8217
SWIDTH 240 0
DWIDTH 6 0
BBX 3 6 2 11
BITMAP
60
E0
60
20
20
60
ENDCHAR
STARTCHAR 201A
ENCODING 8218
SWIDTH 280 0
DWIDTH 7 0
BBX 3 7 2 -4
BITMAP
40
E0
E0
20
20
60
C0
ENDCHAR
STARTCHAR 201C
ENCODING 8220
SWIDTH 480 0
DWIDTH 12 0
BBX 9 6 2 13
BITMAP
2100
4200
8200
8200
E380
E380
ENDCHAR
STARTCHAR 201D
ENCODING 8221
SWIDTH 520 0
DWIDTH 13 0
BBX 9 6 2 12
BITMAP
E380
E380
2180
2080
2100
4300
ENDCHAR
STARTCHAR 201E
ENCODING 8222
SWIDTH 480 0
DWIDTH 12 0
BBX 9 6 2 -4
BITMAP
E780
E380
2180
2180
6100
8200
ENDCHAR
STARTCHAR 2020
ENCODING 8224
SWIDTH 560 0
DWIDTH 14 0
BBX 10 24 2 -6
BITMAP
0C00
0C00
0C00
0C00
0C00
FFC0
FFC0
0C00
0C00
0C00
0C00
0C00
0C00
0C00
0C00
0C00
0C00
0C00
0C00
0C00
0C00
0C00
0C00
0C00
ENDCHAR
STARTCHAR 2021
ENCODING 8225
SWIDTH 560 0
DWIDTH 14 0
BBX 10 24 2 -6
BITMAP
0C00
0C00
0C00
0C00
0C00
FFC0
FFC0
0C00
0C00
0C00
0C00
0C00
0C00
0C00
0C00
0C00
0C00
0C00
FFC0
FFC0
0C00
0C00
0C00
0C00
ENDCHAR
STARTCHAR 2022
ENCODING 8226
SWIDTH 360 0
DWIDTH 9 0
BBX 5 5 2 7
BITMAP
60
F0
F8
F8
70
ENDCHAR
STARTCHAR 2026
ENCODING 8230
SWIDTH 800 0
DWIDTH 20 0
BBX 16 3 2 0
BITMAP
4102
E387
E186
ENDCHAR
STARTCHAR 2030
ENCODING 8240
SWIDTH 1160 0
DWIDTH 29 0
BBX 28 18 1 0
BITMAP
38060000
FC0C0000
C40C0000
84180000
C4180000
C4300000
7C300000
00600000
00600000
00C00000
00C00000
018381C0
0186C360
030C6630
030C6630
060C6630
06044330
0C07C3E0
ENDCHAR
STARTCHAR 2039
ENCODING 8249
SWIDTH 360 0
DWIDTH 9 0
BBX 7 10 1 3
BITMAP
0E
1C
38
70
60
E0
70
38
1C
0E
ENDCHAR
STARTCHAR 203A
ENCODING 8250
SWIDTH 360 0
DWIDTH 9 0
BBX 7 10 1 3
BITMAP
E0
30
38
1C
0E
0E
0C
18
30
E0
ENDCHAR
STARTCHAR 2044
ENCODING 8260
SWIDTH 440 0
DWIDTH 11 0
BBX 12 18 0 0
BITMAP
0030
0060
0060
00C0
00C0
0180
0300
0300
0600
0600
0C00
1800
1800
3000
3000
6000
C000
C000
ENDCHAR
STARTCHAR 2070
ENCODING 8304
SWIDTH 320 0
DWIDTH 8 0
BBX 7 10 1 9
BITMAP
78
CC
C4
86
86
86
86
C4
7C
30
ENDCHAR
STARTCHAR 2074
ENCODING 8308
SWIDTH 320 0
DWIDTH 8 0
BBX 7 9 1 10
BITMAP
18
18
28
68
48
88
FE
08
08
ENDCHAR
STARTCHAR 2075
ENCODING 8309
SWIDTH 280 0
DWIDTH 7 0
BBX 6 9 1 10
BITMAP
FC
80
80
B8
CC
04
04
8C
78
ENDCHAR
STARTCHAR 2076
ENCODING 8310
SWIDTH 280 0
DWIDTH 7 0
BBX 6 9 1 10
BITMAP
30
20
60
F0
DC
84
84
8C
F8
ENDCHAR
STARTCHAR 2077
ENCODING 8311
SWIDTH 280 0
DWIDTH 7 0
BBX 6 9 1 10
BITMAP
FC
0C
08
18
10
10
20
20
60
ENDCHAR
STARTCHAR 2078
ENCODING 8312
SWIDTH 320 0
DWIDTH 8 0
BBX 6 10 1 9
BITMAP
78
CC
84
CC
78
CC
84
84
FC
30
ENDCHAR
STARTCHAR 2079
ENCODING 8313
SWIDTH 280 0
DWIDTH 7 0
BBX 6 10 1 9
BITMAP
78
CC
84
84
CC
7C
08
18
30
20
ENDCHAR
STARTCHAR 2080
ENCODING 8320
SWIDTH 320 0
DWIDTH 8 0
BBX 7 9 1 -6
BITMAP
78
CC
84
86
86
86
84
CC
78
ENDCHAR
STARTCHAR 2081
ENCODING 8321
SWIDTH 240 0
DWIDTH 6 0
BBX 5 9 1 -6
BITMAP
60
E0
A0
20
20
20
20
20
F8
ENDCHAR
STARTCHAR 2082
ENCODING 8322
SWIDTH 280 0
DWIDTH 7 0
BBX 6 9 1 -6
BITMAP
78
CC
8C
0C
18
30
60
C0
FC
ENDCHAR
STARTCHAR 2083
ENCODING 8323
SWIDTH 280 0
DWIDTH 7 0
BBX 6 9 1 -6
BITMAP
78
CC
04
0C
38
0C
04
CC
78
ENDCHAR
STARTCHAR 2084
ENCODING 8324
SWIDTH 320 0
DWIDTH 8 0
BBX 7 9 1 -6
BITMAP
18
18
28
68
48
88
FE
08
08
ENDCHAR
STARTCHAR 2085
ENCODING 8325
SWIDTH 280 0
DWIDTH 7 0
BBX 6 9 1 -6
BITMAP
FC
80
80
B8
CC
04
04
CC
78
ENDCHAR
STARTCHAR 2086
ENCODING 8326
SWIDTH 280 0
DWIDTH 7 0
BBX 6 9 1 -6
BITMAP
30
20
40
F8
CC
84
84
CC
78
ENDCHAR
STARTCHAR 2087
ENCODING 8327
SWIDTH 280 0
DWIDTH 7 0
BBX 6 9 1 -6
BITMAP
FC
0C
08
18
10
30
20
20
60
ENDCHAR
STARTCHAR 2088
ENCODING 8328
SWIDTH 320 0
DWIDTH 8 0
BBX 6 9 1 -6
BITMAP
78
C4
84
CC
78
84
84
C4
FC
ENDCHAR
STARTCHAR 2089
ENCODING 8329
SWIDTH 280 0
DWIDTH 7 0
BBX 6 9 1 -6
BITMAP
78
CC
84
84
CC
7C
08
10
30
ENDCHAR
STARTCHAR 20AB
ENCODING 8363
SWIDTH 560 0
DWIDTH 14 0
BBX 13 21 1 0
BITMAP
0030
0030
03F8
03F8
0030
1F30
3FB0
70F0
E070
C030
C030
C030
C030
E070
70F0
7FB0
1F30
0000
0000
7FF0
7FF0
ENDCHAR
STARTCHAR 20AC
ENCODING 8364
SWIDTH 680 0
DWIDTH 17 0
BBX 16 17 0 0
BITMAP
03F8
07FC
0E0E
0C07
1803
1803
FFC0
1800
1800
1800
FFC0
1800
1C03
0C07
0E0E
07FC
01F8
ENDCHAR
STARTCHAR 2122
ENCODING 8482
SWIDTH 360 0
DWIDTH 9 0
BBX 8 5 1 13
BITMAP
F9
5B
57
55
51
ENDCHAR
STARTCHAR 215B
ENCODING 8539
SWIDTH 880 0
DWIDTH 22 0
BBX 20 18 1 0
BITMAP
200300
600300
E00600
A00600
200C00
201800
201800
203000
F83000
0061E0
00C1B0
00C310
018330
0181E0
030310
060310
060330
0C01F0
ENDCHAR
STARTCHAR 215C
ENCODING 8540
SWIDTH 840 0
DWIDTH 21 0
BBX 19 18 1 0
BITMAP
300300
7C0600
C40600
040C00
380C00
1C1800
043000
CC3000
7C6000
0063C0
00C360
018620
018660
0303C0
030620
060620
0C0660
0C03E0
ENDCHAR
STARTCHAR 215D
ENCODING 8541
SWIDTH 880 0
DWIDTH 22 0
BBX 20 18 1 0
BITMAP
FC0300
FC0300
C00600
F80C00
FC0C00
041800
041800
CC3000
786000
0061E0
00C1B0
00C310
018330
0381E0
030310
060310
060330
0C01F0
ENDCHAR
STARTCHAR 215E
ENCODING 8542
SWIDTH 880 0
DWIDTH 22 0
BBX 21 18 1 0
BITMAP
000300
FC0300
0C0600
080C00
180C00
101800
301800
203000
606000
0060E0
00C1B0
00C310
018110
0300E0
030310
060318
060330
0C01F0
ENDCHAR
STARTCHAR 2212
ENCODING 8722
SWIDTH 600 0
DWIDTH 15 0
BBX 10 2 3 7
BITMAP
FFC0
FFC0
ENDCHAR
STARTCHAR 2215
ENCODING 8725
SWIDTH 480 0
DWIDTH 12 0
BBX 10 18 2 0
BITMAP
00C0
01C0
0180
0180
0300
0300
0600
0600
0C00
0C00
1800
1800
3000
3000
6000
6000
C000
C000
ENDCHAR
STARTCHAR 2248
ENCODING 8776
SWIDTH 560 0
DWIDTH 14 0
BBX 10 8 2 4
BITMAP
38C0
7F80
C700
0000
0000
30C0
7D80
C780
ENDCHAR
STARTCHAR 2260
ENCODING 8800
SWIDTH 720 0
DWIDTH 18 0
BBX 12 15 3 0
BITMAP
0060
00C0
00C0
FFF0
FFF0
0300
0600
0600
0C00
FFF0
FFF0
1800
3000
6000
6000
ENDCHAR
STARTCHAR 2264
ENCODING 8804
SWIDTH 600 0
DWIDTH 15 0
BBX 11 15 2 0
BITMAP
0040
01C0
0780
0E00
3800
6000
3800
1E00
0780
01C0
0040
0000
0000
0000
FFE0
ENDCHAR
STARTCHAR 2265
ENCODING 8805
SWIDTH 600 0
DWIDTH 15 0
BBX 11 15 2 0
BITMAP
4000
7000
3C00
0F00
03C0
00C0
03C0
0F00
1C00
7000
6000
0000
0000
0000
FFE0
ENDCHAR
ENDFONT
